<svg width="109" height="114" viewBox="0 0 109 114" fill="none" xmlns="http://www.w3.org/2000/svg">
<path opacity="0.1" fill-rule="evenodd" clip-rule="evenodd" d="M45.3263 74.3704C45.3263 75.4639 39.3794 76.348 32.0373 76.348C24.6951 76.348 18.7459 75.4639 18.7459 74.3704C18.7459 73.2768 24.6928 72.3892 32.0373 72.3892C39.3817 72.3892 45.3263 73.2768 45.3263 74.3704Z" fill="#171C20"/>
<path opacity="0.1" fill-rule="evenodd" clip-rule="evenodd" d="M90.0041 74.3704C90.0041 75.4639 84.0571 76.348 76.715 76.348C69.3728 76.348 63.4236 75.4639 63.4236 74.3704C63.4236 73.2768 69.3706 72.3892 76.715 72.3892C84.0594 72.3892 90.0041 73.2768 90.0041 74.3704Z" fill="#171C20"/>
<g clip-path="url(#clip0_1152_8810)">
<path fill-rule="evenodd" clip-rule="evenodd" d="M41.6898 42.8114C41.6898 43.1114 41.5706 43.399 41.3585 43.6112C41.1464 43.8233 40.8587 43.9425 40.5587 43.9425C40.2587 43.9425 39.971 43.8233 39.7589 43.6112C39.5468 43.399 39.4276 43.1114 39.4276 42.8114V40.6623C39.4276 40.3623 39.5468 40.0746 39.7589 39.8625C39.971 39.6504 40.2587 39.5312 40.5587 39.5312C40.8587 39.5312 41.1464 39.6504 41.3585 39.8625C41.5706 40.0746 41.6898 40.3623 41.6898 40.6623V42.8114Z" fill="#B9BABC"/>
<path d="M40.5587 44.4515C40.1317 44.4426 39.7256 44.2652 39.4289 43.9579C39.1322 43.6507 38.9691 43.2385 38.9752 42.8115V40.6624C38.9752 40.4545 39.0162 40.2486 39.0957 40.0564C39.1753 39.8643 39.292 39.6897 39.439 39.5427C39.586 39.3957 39.7606 39.279 39.9527 39.1994C40.1449 39.1199 40.3508 39.0789 40.5587 39.0789C40.7667 39.0789 40.9726 39.1199 41.1647 39.1994C41.3568 39.279 41.5314 39.3957 41.6784 39.5427C41.8255 39.6897 41.9421 39.8643 42.0217 40.0564C42.1013 40.2486 42.1422 40.4545 42.1422 40.6624V42.8115C42.1483 43.2385 41.9852 43.6507 41.6885 43.9579C41.3919 44.2652 40.9857 44.4426 40.5587 44.4515ZM40.5587 39.9272C40.4659 39.9309 40.3746 39.9528 40.2902 39.9917C40.2059 40.0306 40.13 40.0858 40.067 40.1541C40.0039 40.2224 39.955 40.3024 39.9229 40.3897C39.8908 40.4769 39.8763 40.5696 39.8801 40.6624V42.8115C39.8801 42.9915 39.9516 43.1641 40.0788 43.2913C40.2061 43.4186 40.3787 43.4901 40.5587 43.4901C40.7387 43.4901 40.9113 43.4186 41.0386 43.2913C41.1659 43.1641 41.2374 42.9915 41.2374 42.8115V40.6624C41.2412 40.5696 41.2266 40.4769 41.1945 40.3897C41.1625 40.3024 41.1135 40.2224 41.0505 40.1541C40.9874 40.0858 40.9116 40.0306 40.8272 39.9917C40.7428 39.9528 40.6516 39.9309 40.5587 39.9272Z" fill="#575756"/>
<path fill-rule="evenodd" clip-rule="evenodd" d="M44.5177 61.2479C44.4621 63.584 43.7185 65.8518 42.3802 67.7673C41.0418 69.6828 39.1682 71.1609 36.9937 72.0166C34.8193 72.8723 32.4408 73.0675 30.1559 72.5778C27.8711 72.0881 25.7814 70.9353 24.1487 69.2636C22.5159 67.592 21.4125 65.4758 20.9767 63.1801C20.5409 60.8843 20.7921 58.5111 21.6987 56.3574C22.6053 54.2037 24.1271 52.3653 26.0735 51.0724C28.02 49.7795 30.3046 49.0895 32.6414 49.0888C34.2196 49.1073 35.7787 49.4364 37.2297 50.0575C38.6807 50.6785 39.9952 51.5794 41.098 52.7085C42.2009 53.8376 43.0705 55.1728 43.6572 56.6381C44.244 58.1033 44.5364 59.6697 44.5177 61.2479Z" fill="#B9BABC"/>
<path d="M32.6412 73.8596C30.1341 73.9169 27.6667 73.2258 25.5541 71.8745C23.4415 70.5231 21.7795 68.5729 20.7803 66.2727C19.7811 63.9725 19.4901 61.4267 19.9443 58.9604C20.3985 56.494 21.5774 54.219 23.3305 52.4257C25.0836 50.6324 27.3313 49.4022 29.7868 48.8922C32.2422 48.3821 34.7939 48.6154 37.1161 49.5622C39.4384 50.5089 41.4258 52.1263 42.8247 54.2077C44.2236 56.2891 44.9705 58.7402 44.97 61.248C45.0032 64.5541 43.724 67.7383 41.4128 70.1025C39.1016 72.4667 35.9472 73.8178 32.6412 73.8596ZM32.6412 49.5413C30.3131 49.484 28.0207 50.122 26.0569 51.3739C24.0931 52.6257 22.5471 54.4346 21.6164 56.5694C20.6857 58.7042 20.4126 61.068 20.8318 63.3588C21.2511 65.6496 22.3438 67.7634 23.9703 69.4302C25.5968 71.0969 27.6833 72.241 29.9631 72.7161C32.243 73.1913 34.6128 72.976 36.7697 72.0977C38.9266 71.2195 40.7727 69.7182 42.0722 67.7856C43.3717 65.853 44.0656 63.5769 44.0652 61.248C44.0984 58.182 42.9145 55.2279 40.773 53.0334C38.6315 50.8389 35.7072 49.5831 32.6412 49.5413Z" fill="#575756"/>
<path fill-rule="evenodd" clip-rule="evenodd" d="M32.6413 74.5779C29.9837 74.5779 27.3857 73.7898 25.176 72.3133C22.9662 70.8368 21.2439 68.7382 20.2269 66.2829C19.2099 63.8275 18.9438 61.1257 19.4622 58.5192C19.9807 55.9126 21.2605 53.5183 23.1397 51.6391C25.019 49.7599 27.4132 48.4801 30.0198 47.9616C32.6264 47.4431 35.3282 47.7092 37.7835 48.7263C40.2388 49.7433 42.3374 51.4656 43.8139 53.6753C45.2905 55.8851 46.0785 58.483 46.0785 61.1406C46.074 64.7031 44.6569 68.1183 42.1379 70.6373C39.6189 73.1563 36.2037 74.5734 32.6413 74.5779ZM32.6413 50.401C30.5161 50.401 28.4386 51.0312 26.6715 52.2119C24.9045 53.3926 23.5272 55.0708 22.714 57.0343C21.9007 58.9977 21.6879 61.1582 22.1025 63.2426C22.5171 65.327 23.5405 67.2416 25.0432 68.7444C26.546 70.2471 28.4606 71.2705 30.545 71.6851C32.6294 72.0997 34.7899 71.8869 36.7533 71.0736C38.7168 70.2604 40.3949 68.8831 41.5757 67.1161C42.7564 65.349 43.3866 63.2715 43.3866 61.1463C43.3866 58.2965 42.2545 55.5634 40.2393 53.5483C38.2242 51.5331 35.4911 50.401 32.6413 50.401Z" fill="#747779"/>
<path d="M32.6411 74.1255C29.1913 74.1255 25.8828 72.7551 23.4435 70.3157C21.0041 67.8764 19.6337 64.5679 19.6337 61.1181H18.7288C18.7281 62.9453 19.0874 64.7547 19.7863 66.443C20.4852 68.1312 21.51 69.6652 22.802 70.9572C24.094 72.2493 25.628 73.274 27.3162 73.9729C29.0045 74.6718 30.8139 75.0311 32.6411 75.0304V74.1255ZM19.6337 61.1181C19.6337 57.6683 21.0041 54.3598 23.4435 51.9205C25.8828 49.4811 29.1913 48.1107 32.6411 48.1107V47.2058C28.9583 47.2088 25.4271 48.6731 22.8229 51.2773C20.2188 53.8815 18.7544 57.4126 18.7514 61.0955L19.6337 61.1181ZM32.6411 48.1107C36.0909 48.1107 39.3994 49.4811 41.8388 51.9205C44.2781 54.3598 45.6486 57.6683 45.6486 61.1181H46.5534C46.5429 57.4357 45.0724 53.9078 42.4643 51.3082C39.8562 48.7086 36.3235 47.2495 32.6411 47.251V48.1107ZM45.6486 61.1181C45.6486 64.5679 44.2781 67.8764 41.8388 70.3157C39.3994 72.7551 36.0909 74.1255 32.6411 74.1255V75.0304C36.3235 75.0259 39.8538 73.5611 42.4576 70.9572C45.0615 68.3534 46.5263 64.8231 46.5308 61.1407L45.6486 61.1181ZM32.6411 49.9487C29.6732 49.9517 26.8276 51.1316 24.7285 53.2297C22.6293 55.3278 21.4479 58.1728 21.4434 61.1407H22.3483C22.3513 58.4123 23.4368 55.7966 25.3666 53.8679C27.2964 51.9392 29.9127 50.855 32.6411 50.8535V49.9487ZM21.4434 61.1407C21.4479 64.1081 22.6295 66.9525 24.7288 69.0497C26.8281 71.1469 29.6737 72.3256 32.6411 72.3271V71.4222C29.9137 71.4207 27.2983 70.3374 25.3686 68.4099C23.439 66.4824 22.3528 63.8681 22.3483 61.1407H21.4434ZM32.6411 72.3271C35.607 72.3241 38.4506 71.1446 40.5478 69.0474C42.645 66.9502 43.8245 64.1066 43.8275 61.1407H42.9226C42.9182 63.8662 41.8335 66.4787 39.9063 68.4059C37.9791 70.3331 35.3666 71.4178 32.6411 71.4222V72.3271ZM43.8275 61.1407C43.8245 58.1743 42.6452 55.3301 40.5481 53.232C38.4511 51.1339 35.6075 49.9532 32.6411 49.9487V50.8535C35.3675 50.858 37.9809 51.9435 39.9083 53.8719C41.8356 55.8003 42.9197 58.4143 42.9226 61.1407H43.8275Z" fill="#575756"/>
<path d="M32.6415 74.2554C25.2894 74.2554 19.3513 68.419 19.3513 61.2479C19.3513 54.0769 25.2894 48.2405 32.6415 48.2405C32.7165 48.2405 32.7884 48.2703 32.8414 48.3233C32.8944 48.3763 32.9242 48.4483 32.9242 48.5233C32.9242 48.5983 32.8944 48.6702 32.8414 48.7232C32.7884 48.7762 32.7165 48.806 32.6415 48.806C25.6231 48.806 19.9168 54.3879 19.9168 61.2479C19.9168 68.1079 25.6231 73.6898 32.6415 73.6898C32.7165 73.6898 32.7884 73.7196 32.8414 73.7726C32.8944 73.8257 32.9242 73.8976 32.9242 73.9726C32.9242 74.0476 32.8944 74.1195 32.8414 74.1725C32.7884 74.2256 32.7165 74.2554 32.6415 74.2554Z" fill="white"/>
<path fill-rule="evenodd" clip-rule="evenodd" d="M88.0643 61.2479C88.0087 63.584 87.2652 65.8518 85.9268 67.7673C84.5885 69.6828 82.7148 71.1609 80.5404 72.0166C78.3659 72.8723 75.9874 73.0675 73.7025 72.5778C71.4177 72.0881 69.3281 70.9353 67.6953 69.2636C66.0625 67.592 64.9592 65.4758 64.5234 63.1801C64.0876 60.8843 64.3387 58.5111 65.2453 56.3574C66.1519 54.2037 67.6737 52.3653 69.6202 51.0724C71.5666 49.7795 73.8513 49.0895 76.188 49.0888C77.7662 49.1073 79.3253 49.4364 80.7763 50.0575C82.2274 50.6785 83.5418 51.5794 84.6447 52.7085C85.7475 53.8376 86.6171 55.1728 87.2039 56.6381C87.7906 58.1033 88.083 59.6697 88.0643 61.2479Z" fill="#B9BABC"/>
<path d="M76.1879 73.8596C73.6807 73.9169 71.2133 73.2258 69.1007 71.8745C66.9881 70.5231 65.3261 68.5729 64.3269 66.2727C63.3277 63.9725 63.0367 61.4267 63.4909 58.9604C63.9452 56.494 65.1241 54.219 66.8772 52.4257C68.6302 50.6324 70.878 49.4022 73.3334 48.8922C75.7888 48.3821 78.3405 48.6154 80.6628 49.5622C82.985 50.5089 84.9725 52.1263 86.3713 54.2077C87.7702 56.2891 88.5171 58.7402 88.5167 61.248C88.5499 64.5541 87.2706 67.7383 84.9594 70.1025C82.6482 72.4667 79.4938 73.8178 76.1879 73.8596ZM76.1879 49.5413C73.8597 49.484 71.5673 50.122 69.6035 51.3739C67.6398 52.6257 66.0938 54.4346 65.1631 56.5694C64.2324 58.7042 63.9592 61.068 64.3785 63.3588C64.7978 65.6496 65.8904 67.7634 67.5169 69.4302C69.1434 71.0969 71.2299 72.241 73.5098 72.7161C75.7896 73.1913 78.1594 72.976 80.3163 72.0977C82.4732 71.2195 84.3194 69.7182 85.6189 67.7856C86.9184 65.853 87.6122 63.5769 87.6118 61.248C87.645 58.182 86.4611 55.2279 84.3196 53.0334C82.1781 50.8389 79.2538 49.5831 76.1879 49.5413Z" fill="#575756"/>
<path fill-rule="evenodd" clip-rule="evenodd" d="M76.2219 74.5779C73.5642 74.5779 70.9663 73.7898 68.7565 72.3133C66.5468 70.8368 64.8245 68.7382 63.8075 66.2829C62.7904 63.8275 62.5243 61.1257 63.0428 58.5192C63.5613 55.9126 64.8411 53.5183 66.7203 51.6391C68.5995 49.7599 70.9938 48.4801 73.6004 47.9616C76.207 47.4431 78.9087 47.7092 81.3641 48.7263C83.8194 49.7433 85.918 51.4656 87.3945 53.6753C88.871 55.8851 89.6591 58.483 89.6591 61.1406C89.6546 64.7031 88.2375 68.1183 85.7185 70.6373C83.1995 73.1563 79.7843 74.5734 76.2219 74.5779ZM76.2219 50.401C74.0966 50.401 72.0192 51.0312 70.2521 52.2119C68.4851 53.3926 67.1078 55.0708 66.2945 57.0343C65.4812 58.9977 65.2684 61.1582 65.6831 63.2426C66.0977 65.327 67.1211 67.2416 68.6238 68.7444C70.1266 70.2471 72.0412 71.2705 74.1256 71.6851C76.2099 72.0997 78.3705 71.8869 80.3339 71.0736C82.2973 70.2604 83.9755 68.8831 85.1562 67.1161C86.3369 65.349 86.9671 63.2715 86.9671 61.1463C86.9671 58.2965 85.835 55.5634 83.8199 53.5483C81.8048 51.5331 79.0717 50.401 76.2219 50.401Z" fill="#747779"/>
<path d="M76.222 74.1255C72.7722 74.1255 69.4637 72.7551 67.0243 70.3157C64.585 67.8764 63.2146 64.5679 63.2146 61.1181H62.3097C62.3127 64.8009 63.777 68.3321 66.3812 70.9363C68.9854 73.5404 72.5165 75.0048 76.1994 75.0078L76.222 74.1255ZM63.2146 61.1181C63.2146 57.6683 64.585 54.3598 67.0243 51.9205C69.4637 49.4811 72.7722 48.1107 76.222 48.1107V47.2058C72.5391 47.2088 69.008 48.6731 66.4038 51.2773C63.7996 53.8815 62.3353 57.4126 62.3323 61.0955L63.2146 61.1181ZM76.222 48.1107C79.6718 48.1107 82.9803 49.4811 85.4196 51.9205C87.859 54.3598 89.2294 57.6683 89.2294 61.1181H90.1343C90.1298 57.4357 88.665 53.9054 86.0611 51.3016C83.4573 48.6977 79.927 47.2329 76.2446 47.2284L76.222 48.1107ZM89.2294 61.1181C89.2294 64.5679 87.859 67.8764 85.4196 70.3157C82.9803 72.7551 79.6718 74.1255 76.222 74.1255V75.0304C79.9044 75.0259 83.4347 73.5611 86.0385 70.9572C88.6424 68.3534 90.1072 64.8231 90.1117 61.1407L89.2294 61.1181ZM76.222 49.926C73.2551 49.9305 70.4109 51.1111 68.313 53.2091C66.215 55.307 65.0344 58.1512 65.0299 61.1181H65.9348C65.9378 58.3907 67.0226 55.7758 68.9512 53.8473C70.8797 51.9187 73.4946 50.8339 76.222 50.8309V49.926ZM65.0299 61.1181C65.0344 64.0845 66.2152 66.9281 68.3133 69.0251C70.4114 71.1222 73.2556 72.3015 76.222 72.3045V71.3996C73.4956 71.3966 70.8816 70.3126 68.9532 68.3853C67.0247 66.4579 65.9393 63.8445 65.9348 61.1181H65.0299ZM76.222 72.3045C79.1879 72.3015 82.0315 71.122 84.1287 69.0248C86.2259 66.9276 87.4054 64.084 87.4084 61.1181H86.5035C86.5005 63.844 85.4163 66.4574 83.4888 68.3849C81.5613 70.3124 78.9479 71.3966 76.222 71.3996V72.3045ZM87.4084 61.1181C87.4054 58.1517 86.226 55.3075 84.129 53.2094C82.032 51.1113 79.1884 49.9305 76.222 49.926V50.8309C78.9489 50.8339 81.5631 51.9189 83.4908 53.8476C85.4185 55.7763 86.502 58.3912 86.5035 61.1181H87.4084Z" fill="#575756"/>
<path d="M76.188 74.2554C69.1697 74.2554 63.4634 68.419 63.4634 61.2479C63.4634 54.0769 69.1697 48.2405 76.188 48.2405C76.263 48.2405 76.335 48.2703 76.388 48.3233C76.441 48.3763 76.4708 48.4483 76.4708 48.5233C76.4708 48.5983 76.441 48.6702 76.388 48.7232C76.335 48.7762 76.263 48.806 76.188 48.806C72.8882 48.806 69.7236 50.1169 67.3903 52.4502C65.057 54.7835 63.7461 57.9481 63.7461 61.2479C63.7461 64.5477 65.057 67.7124 67.3903 70.0457C69.7236 72.379 72.8882 73.6898 76.188 73.6898C76.263 73.6898 76.335 73.7196 76.388 73.7726C76.441 73.8257 76.4708 73.8976 76.4708 73.9726C76.4708 74.0476 76.441 74.1195 76.388 74.1725C76.335 74.2256 76.263 74.2554 76.188 74.2554Z" fill="white"/>
<path fill-rule="evenodd" clip-rule="evenodd" d="M77.0927 59.1725L67.2976 38.8131C67.1693 38.5821 66.9546 38.4115 66.7006 38.3388C66.4466 38.2662 66.1741 38.2974 65.9431 38.4257C65.7121 38.5539 65.5415 38.7686 65.4689 39.0227C65.3962 39.2767 65.4275 39.5491 65.5557 39.7801L66.5737 42.1724H40.4853C40.2554 42.1733 40.0328 42.2537 39.8555 42.4001C39.6782 42.5465 39.557 42.7498 39.5126 42.9754L31.2726 60.6655C31.2027 60.8078 31.1696 60.9653 31.1765 61.1236C31.1629 61.36 31.2341 61.5934 31.3771 61.7821C31.5201 61.9707 31.7257 62.1022 31.9569 62.1529L50.3257 64.7092C50.4083 64.7202 50.492 64.7202 50.5745 64.7092H50.665C50.8018 64.7071 50.9366 64.677 51.0611 64.6205C51.1857 64.5641 51.2973 64.4826 51.3889 64.3811L68.6832 47.2566L75.3565 60.117C75.4197 60.231 75.5046 60.3314 75.6066 60.4126C75.7085 60.4938 75.8255 60.554 75.9507 60.59C76.076 60.626 76.2071 60.6369 76.3365 60.6222C76.466 60.6075 76.5913 60.5675 76.7053 60.5044C76.8193 60.4412 76.9198 60.3563 77.001 60.2543C77.0821 60.1524 77.1424 60.0354 77.1784 59.9102C77.2144 59.7849 77.2253 59.6538 77.2106 59.5243C77.1959 59.3949 77.1559 59.2696 77.0927 59.1556V59.1725ZM33.4839 60.428L40.5192 45.8767L49.0023 62.4131L33.4839 60.428ZM51.3889 61.3329L50.8856 61.8984L41.8935 44.1404H67.3881L67.8292 45.1924L51.3889 61.3329Z" fill="#FFE0A1"/>
<path d="M77.0928 59.1725L76.6856 59.3704L77.0928 59.1725ZM67.2977 38.813L67.7048 38.6207L67.2977 38.813ZM65.946 38.4284L65.7255 38.0326L65.946 38.4284ZM65.5558 39.7801L65.9743 39.6048C65.9763 39.5897 65.9763 39.5745 65.9743 39.5595L65.5558 39.7801ZM66.5738 42.1723V42.6247C66.6483 42.625 66.7217 42.6072 66.7877 42.5727C66.8538 42.5382 66.9104 42.4881 66.9527 42.4268C66.9923 42.3642 67.0165 42.2932 67.0234 42.2195C67.0302 42.1458 67.0196 42.0715 66.9923 42.0026L66.5738 42.1723ZM39.5126 42.9754L39.9085 43.1846C39.9319 43.1467 39.9473 43.1043 39.9538 43.0602L39.5126 42.9754ZM39.5126 42.9754L39.1111 42.7661L39.5126 42.9754ZM31.2727 60.6655L31.6799 60.8634L31.2727 60.6655ZM31.1766 61.1236H31.629V61.0896L31.1766 61.1236ZM31.957 62.1529L31.8665 62.594L31.957 62.1529ZM50.3258 64.7091L50.4219 64.268H50.388L50.3258 64.7091ZM50.5746 64.7091V64.2567H50.535L50.5746 64.7091ZM50.6651 64.7091V64.2567V64.7091ZM51.389 64.3811L51.0666 64.0587L51.389 64.3811ZM68.6832 47.2565L69.0848 47.0473C69.052 46.9846 69.0051 46.9305 68.9477 46.8893C68.8902 46.848 68.824 46.8208 68.7541 46.8098C68.6843 46.7988 68.6129 46.8043 68.5456 46.8259C68.4782 46.8475 68.4169 46.8846 68.3665 46.9342L68.6832 47.2565ZM75.3566 60.1169L74.9551 60.3262L75.3566 60.1169ZM76.7082 60.5071L76.9288 60.903L76.7082 60.5071ZM33.484 60.411L33.0768 60.2187C33.0436 60.2824 33.0263 60.3533 33.0263 60.4251C33.0263 60.497 33.0436 60.5678 33.0768 60.6316C33.1126 60.6941 33.1624 60.7475 33.2222 60.7878C33.282 60.828 33.3503 60.8539 33.4218 60.8634L33.484 60.411ZM40.5193 45.8766L40.9208 45.6673C40.8826 45.5927 40.8242 45.5303 40.7522 45.4873C40.6802 45.4443 40.5975 45.4224 40.5137 45.4242C40.4293 45.4231 40.3464 45.4466 40.2751 45.4918C40.2038 45.537 40.1472 45.6019 40.1121 45.6787L40.5193 45.8766ZM49.0024 62.413L48.9459 62.8598C49.0269 62.8704 49.1092 62.8587 49.184 62.8258C49.2588 62.7929 49.3231 62.7401 49.37 62.6732C49.4182 62.6056 49.4468 62.526 49.4528 62.4432C49.4588 62.3604 49.4419 62.2776 49.404 62.2038L49.0024 62.413ZM51.406 61.3328L51.0893 61.0105L51.406 61.3328ZM50.9026 61.8984L50.5011 62.102C50.5347 62.1683 50.5842 62.2253 50.645 62.2679C50.7059 62.3106 50.7764 62.3376 50.8502 62.3465C50.924 62.3555 50.9989 62.3461 51.0682 62.3192C51.1375 62.2923 51.1991 62.2488 51.2476 62.1924L50.9026 61.8984ZM41.9105 44.1404V43.688C41.8335 43.6884 41.7579 43.7085 41.6908 43.7463C41.6237 43.7842 41.5674 43.8385 41.5271 43.9042C41.4869 43.9699 41.4642 44.0448 41.461 44.1217C41.4578 44.1987 41.4743 44.2752 41.509 44.344L41.9105 44.1404ZM67.4051 44.1404L67.8236 43.9651C67.7896 43.8823 67.7316 43.8116 67.657 43.7622C67.5823 43.7128 67.4946 43.6869 67.4051 43.688V44.1404ZM67.8462 45.1923L68.1629 45.5147C68.2265 45.4506 68.27 45.3694 68.288 45.281C68.3061 45.1926 68.298 45.1008 68.2647 45.017L67.8462 45.1923ZM77.517 58.9519L67.7048 38.5981L66.8905 38.9883L76.6856 59.3478L77.517 58.9519ZM67.7048 38.5755C67.5178 38.2406 67.206 37.9932 66.8373 37.8873C66.4686 37.7813 66.0731 37.8254 65.7368 38.0099L66.1722 38.8017C66.2993 38.7366 66.4463 38.722 66.5838 38.7608C66.7212 38.7996 66.8388 38.889 66.9131 39.0109L67.7048 38.5755ZM65.7368 38.0099C65.5704 38.102 65.4238 38.226 65.3053 38.3747C65.1868 38.5234 65.0988 38.6941 65.0463 38.8768C64.9938 39.0596 64.9778 39.2509 64.9992 39.4398C65.0207 39.6288 65.0791 39.8117 65.1712 39.978L65.963 39.5369C65.8995 39.4104 65.8858 39.2647 65.9246 39.1286C65.9633 38.9925 66.0517 38.8758 66.1722 38.8017L65.7368 38.0099ZM65.1712 39.9328L66.1779 42.3476L67.0149 42.0026L66.0082 39.5821L65.1712 39.9328ZM66.5738 41.7368H51.389V42.6417H66.5738V41.7368ZM51.389 41.7368H40.4854V42.6417H51.389V41.7368ZM40.4854 41.7368C40.1555 41.7363 39.8353 41.848 39.5774 42.0536C39.3194 42.2591 39.139 42.5463 39.0659 42.8679L39.9538 43.0432C39.9823 42.9224 40.0498 42.8142 40.1458 42.7355C40.2419 42.6568 40.3612 42.6119 40.4854 42.6078V41.7368ZM39.1111 42.7774C39.11 42.7925 39.11 42.8076 39.1111 42.8227L39.9142 43.2412C39.9163 43.2262 39.9163 43.2109 39.9142 43.1959L39.1111 42.7774ZM39.1111 42.834L30.8655 60.4732L31.6856 60.8578L39.9029 43.1959L39.1111 42.834ZM30.8655 60.4675C30.7649 60.6752 30.7163 60.9043 30.7241 61.1349H31.629C31.6269 61.0492 31.6443 60.9641 31.6799 60.886L30.8655 60.4675ZM30.7241 61.101C30.7041 61.4437 30.807 61.7824 31.0143 62.0561C31.2216 62.3298 31.5198 62.5205 31.8552 62.594L32.0419 61.7061C31.9174 61.674 31.8076 61.6005 31.7305 61.4978C31.6534 61.395 31.6136 61.269 31.6177 61.1405L30.7241 61.101ZM31.8948 62.5996L50.2636 65.1559L50.388 64.2623L32.0192 61.7004L31.8948 62.5996ZM50.2296 65.1502C50.3517 65.166 50.4752 65.166 50.5972 65.1502L50.552 64.2454C50.5089 64.2518 50.465 64.2518 50.4219 64.2454L50.2296 65.1502ZM50.5577 65.1502H50.6821L50.6481 64.2454H50.5916L50.5577 65.1502ZM50.6764 65.1502C50.8756 65.1477 51.072 65.1037 51.2531 65.0209C51.4342 64.9381 51.5961 64.8184 51.7283 64.6695L51.0497 64.07C50.9999 64.1257 50.9389 64.1701 50.8706 64.2003C50.8024 64.2306 50.7284 64.2459 50.6538 64.2454L50.6764 65.1502ZM51.7057 64.6865L69.0056 47.5958L68.3665 46.9511L51.0666 64.0757L51.7057 64.6865ZM68.2704 47.4827L74.9438 60.3431L75.7468 59.9303L69.0735 47.0642L68.2704 47.4827ZM74.9494 60.3544C75.0415 60.5208 75.1654 60.6674 75.3142 60.7859C75.4629 60.9044 75.6336 60.9924 75.8163 61.0449C75.9991 61.0974 76.1904 61.1134 76.3793 61.092C76.5683 61.0705 76.7511 61.0121 76.9175 60.92L76.4764 60.1282C76.3499 60.1917 76.2042 60.2054 76.0681 60.1666C75.932 60.1279 75.8153 60.0395 75.7412 59.919L74.9494 60.3544ZM76.9175 60.92C77.0839 60.8279 77.2305 60.704 77.349 60.5552C77.4674 60.4065 77.5554 60.2358 77.6079 60.0531C77.6605 59.8703 77.6765 59.679 77.655 59.4901C77.6336 59.3011 77.5752 59.1183 77.483 58.9519L76.6913 59.393C76.7547 59.5195 76.7684 59.6652 76.7297 59.8013C76.6909 59.9374 76.6026 60.0541 76.482 60.1282L76.9175 60.92ZM33.8799 60.6259L40.9265 46.0689L40.1121 45.6956L33.0768 60.2357L33.8799 60.6259ZM40.1008 46.0802L48.5839 62.6166L49.387 62.2038L40.9208 45.6956L40.1008 46.0802ZM49.042 61.9606L33.5405 59.9812L33.4274 60.8804L48.9289 62.8598L49.042 61.9606ZM51.044 61.0387L50.5407 61.6043L51.2306 62.1698L51.734 61.6043L51.044 61.0387ZM51.2872 61.7174L42.2951 43.9594L41.492 44.3666L50.4841 62.1246L51.2872 61.7174ZM41.8936 44.6154H51.389V43.7106H41.8936V44.6154ZM51.389 44.6154H67.3881V43.7106H51.389V44.6154ZM66.9753 44.3383L67.4108 45.3902L68.2478 45.0396L67.8066 43.999L66.9753 44.3383ZM67.5408 44.9039L51.1006 61.0218L51.734 61.6665L68.1742 45.5486L67.5408 44.9039Z" fill="#575756"/>
<path d="M51.0666 64.1265C51.1185 64.0737 51.1475 64.0026 51.1475 63.9286C51.1475 63.8546 51.1185 63.7835 51.0666 63.7306C51.0404 63.7041 51.0091 63.6831 50.9746 63.6687C50.9402 63.6544 50.9032 63.647 50.8659 63.647C50.8285 63.647 50.7916 63.6544 50.7571 63.6687C50.7227 63.6831 50.6914 63.7041 50.6651 63.7306L51.0666 64.1265ZM50.569 64.0247V63.7419V64.0247ZM50.4728 64.0247L50.535 63.7476L50.4728 64.0247ZM50.5068 63.7419C50.4318 63.7254 50.3533 63.7394 50.2886 63.7808C50.2239 63.8221 50.1783 63.8875 50.1618 63.9625C50.1453 64.0375 50.1592 64.116 50.2006 64.1807C50.242 64.2454 50.3073 64.291 50.3823 64.3075L50.5068 63.7419ZM76.7139 59.342C76.677 59.277 76.6162 59.2289 76.5445 59.2078C76.4727 59.1867 76.3956 59.1942 76.3293 59.2289C76.2966 59.2467 76.2677 59.2707 76.2443 59.2997C76.2208 59.3287 76.2034 59.362 76.1929 59.3977C76.1824 59.4334 76.179 59.4709 76.183 59.5079C76.187 59.545 76.1983 59.5808 76.2162 59.6135L76.7139 59.342ZM76.482 59.5117L76.2388 59.6474L76.482 59.5117ZM76.482 59.7323L76.2106 59.6587L76.482 59.7323ZM76.3406 59.9132L76.2049 59.6644L76.3406 59.9132ZM76.1993 59.6644C76.1243 59.6644 76.0523 59.6942 75.9993 59.7472C75.9463 59.8002 75.9165 59.8722 75.9165 59.9472C75.9165 60.0222 75.9463 60.0941 75.9993 60.1471C76.0523 60.2001 76.1243 60.2299 76.1993 60.2299V59.6644ZM75.9561 59.8171L75.7072 59.9528C75.7072 59.9528 75.7072 59.9528 75.7072 59.9811L75.9561 59.8171ZM69.7125 47.1773C69.6765 47.1112 69.6162 47.0619 69.5444 47.0397C69.4725 47.0175 69.3949 47.0243 69.3279 47.0585C69.2623 47.0934 69.2131 47.1527 69.1909 47.2236C69.1686 47.2945 69.1752 47.3713 69.2092 47.4374L69.7125 47.1773ZM32.0136 61.7343C32.0856 61.7534 32.1622 61.7433 32.2268 61.7062C32.2913 61.6691 32.3387 61.6081 32.3586 61.5363C32.3689 61.5011 32.3721 61.4641 32.368 61.4276C32.3639 61.391 32.3526 61.3557 32.3347 61.3236C32.3168 61.2915 32.2927 61.2633 32.2637 61.2406C32.2348 61.2179 32.2017 61.2011 32.1663 61.1914L32.0136 61.7343ZM31.8779 61.1687H32.1606H31.8779ZM31.8779 61.1122H32.1606H31.8779ZM31.9061 60.9764L32.155 61.1065L31.9061 60.9764ZM31.9061 60.9256L31.646 60.8068L31.9061 60.9256ZM40.1178 43.3203L39.8746 43.1845L40.1178 43.3203ZM40.18 43.2128L40.4288 43.3429C40.4311 43.3184 40.4311 43.2938 40.4288 43.2694L40.18 43.2128ZM40.18 43.111L40.4571 43.1676L40.18 43.111ZM67.6144 42.8678V43.1506C67.6604 43.1512 67.7058 43.1401 67.7464 43.1184C67.7869 43.0966 67.8213 43.0649 67.8462 43.0262C67.8685 42.9854 67.8802 42.9397 67.8802 42.8933C67.8802 42.8468 67.8685 42.8011 67.8462 42.7604L67.6144 42.8678ZM66.1892 39.4746L66.4493 39.3671L66.1892 39.4746ZM66.1892 39.4407L65.9404 39.5764L66.1892 39.4407ZM66.3023 39.0391L66.1666 38.7903L66.3023 39.0391ZM66.4493 39.2936C66.4936 39.3539 66.5592 39.3951 66.6327 39.4088C66.7063 39.4224 66.7823 39.4075 66.8452 39.3671C66.8763 39.3461 66.9028 39.3192 66.9233 39.2879C66.9438 39.2565 66.9579 39.2214 66.9648 39.1846C66.9716 39.1478 66.9711 39.1099 66.9632 39.0733C66.9553 39.0367 66.9402 39.002 66.9187 38.9713L66.4493 39.2936ZM50.6425 63.7533V64.3188C50.72 64.3185 50.7967 64.3023 50.8677 64.2712C50.9387 64.2401 51.0026 64.1947 51.0553 64.1378L50.6425 63.7533ZM50.6425 63.7533H50.5633V64.3188H50.6425V63.7533ZM50.552 64.0304V63.7476H50.5124V64.3131H50.5803L50.552 64.0304ZM50.4954 63.7476L50.371 64.3131H50.4728L50.4954 63.7476ZM50.4954 63.7476L50.371 64.3131L50.4954 63.7476ZM76.1766 59.6135V59.6474L76.6687 59.376V59.342L76.1766 59.6135ZM76.1766 59.6531L76.7422 59.8058C76.7631 59.7335 76.7694 59.6577 76.7606 59.5829C76.7519 59.5081 76.7283 59.4359 76.6913 59.3703L76.1766 59.6531ZM76.1766 59.6531L76.4481 60.1451C76.5151 60.1092 76.5742 60.0601 76.6218 60.0008C76.6694 59.9416 76.7046 59.8733 76.7252 59.8001L76.1766 59.6531ZM76.1766 59.6531V60.2186C76.2738 60.2183 76.3692 60.193 76.4538 60.1451L76.1766 59.6531ZM76.1766 59.6531L75.7129 59.9754C75.7653 60.053 75.8361 60.1163 75.9191 60.1597C76.002 60.2032 76.0944 60.2254 76.188 60.2243L76.1766 59.6531ZM76.1766 59.6531L69.7125 47.1773L69.2092 47.4374L75.7355 59.9528L76.1766 59.6531ZM32.1663 61.1914L31.6007 61.1574C31.5964 61.2851 31.6353 61.4105 31.7113 61.5132C31.7873 61.6159 31.8959 61.6898 32.0192 61.723L32.1663 61.1914ZM32.1663 61.1914V61.1348H31.6007V61.1857L32.1663 61.1914ZM32.1663 61.1235L31.6629 60.869C31.6219 60.9534 31.6024 61.0467 31.6064 61.1405L32.1663 61.1235ZM32.1663 61.1235V61.0726L31.6516 60.8464V60.8973L32.1663 61.1235ZM32.1663 61.0782L40.3779 43.4334L39.8633 43.1959L31.6686 60.8011L32.1663 61.0782ZM40.3666 43.4334L40.4005 43.3768V43.3372L40.1517 43.2072L39.9029 43.0714V43.1054V43.145L40.3666 43.4334ZM40.4571 43.2468V43.145L39.8916 43.0318V43.1336L40.4571 43.2468ZM40.4571 43.145V42.5794C40.3232 42.5772 40.1928 42.6226 40.0893 42.7076C39.9857 42.7925 39.9156 42.9114 39.8916 43.0432L40.4571 43.145ZM40.4571 43.145H67.603V42.5794H40.4571V43.145ZM67.8462 42.7547L66.4211 39.3615L65.9008 39.5764L67.3259 42.9696L67.8462 42.7547ZM66.4098 39.3049V39.271L65.9177 39.5425V39.5764L66.4098 39.3049ZM66.4098 39.271L65.8442 39.1183C65.8233 39.1906 65.817 39.2664 65.8257 39.3412C65.8345 39.416 65.8581 39.4882 65.8951 39.5538L66.4098 39.271ZM66.4098 39.271L66.1326 38.779C66.0667 38.8155 66.0087 38.8648 65.9621 38.9241C65.9155 38.9833 65.8812 39.0513 65.8612 39.124L66.4098 39.271ZM66.4098 39.271V38.7055C66.3131 38.704 66.2177 38.7274 66.1326 38.7733L66.4098 39.271ZM66.4098 39.271L66.8792 38.9486C66.8267 38.8711 66.7559 38.8078 66.673 38.7643C66.5901 38.7209 66.4977 38.6987 66.4041 38.6998L66.4098 39.271Z" fill="white"/>
<path fill-rule="evenodd" clip-rule="evenodd" d="M46.2143 38.9093C46.2077 39.1388 46.1559 39.3648 46.0619 39.5743C45.968 39.7838 45.8337 39.9727 45.6666 40.1303C45.4996 40.2878 45.3032 40.411 45.0886 40.4926C44.8739 40.5742 44.6453 40.6127 44.4158 40.6059H36.1363C35.6863 40.6059 35.2548 40.4272 34.9366 40.109C34.6184 39.7908 34.4397 39.3593 34.4397 38.9093C34.4397 38.4593 34.6184 38.0278 34.9366 37.7096C35.2548 37.3914 35.6863 37.2127 36.1363 37.2127H44.4158C44.6453 37.2059 44.8739 37.2444 45.0886 37.326C45.3032 37.4076 45.4996 37.5307 45.6666 37.6883C45.8337 37.8458 45.968 38.0348 46.0619 38.2443C46.1559 38.4538 46.2077 38.6798 46.2143 38.9093Z" fill="#747779"/>
<path d="M44.4159 41.0582H36.1364C35.8542 41.0582 35.5747 41.0027 35.314 40.8947C35.0533 40.7867 34.8164 40.6284 34.6168 40.4288C34.4173 40.2292 34.259 39.9923 34.151 39.7316C34.043 39.4709 33.9874 39.1914 33.9874 38.9092C33.9874 38.627 34.043 38.3475 34.151 38.0868C34.259 37.826 34.4173 37.5891 34.6168 37.3896C34.8164 37.19 35.0533 37.0317 35.314 36.9237C35.5747 36.8157 35.8542 36.7601 36.1364 36.7601H44.4159C44.6982 36.7601 44.9776 36.8157 45.2383 36.9237C45.4991 37.0317 45.736 37.19 45.9355 37.3896C46.1351 37.5891 46.2934 37.826 46.4014 38.0868C46.5094 38.3475 46.565 38.627 46.565 38.9092C46.565 39.1914 46.5094 39.4709 46.4014 39.7316C46.2934 39.9923 46.1351 40.2292 45.9355 40.4288C45.736 40.6284 45.4991 40.7867 45.2383 40.8947C44.9776 41.0027 44.6982 41.0582 44.4159 41.0582ZM36.1364 37.665C35.9631 37.6485 35.7882 37.6683 35.6229 37.7233C35.4577 37.7783 35.3058 37.8672 35.1769 37.9844C35.0481 38.1015 34.9451 38.2443 34.8747 38.4036C34.8042 38.5628 34.7678 38.735 34.7678 38.9092C34.7678 39.0833 34.8042 39.2556 34.8747 39.4148C34.9451 39.5741 35.0481 39.7169 35.1769 39.834C35.3058 39.9511 35.4577 40.0401 35.6229 40.0951C35.7882 40.1501 35.9631 40.1699 36.1364 40.1534H44.4159C44.5893 40.1699 44.7642 40.1501 44.9294 40.0951C45.0947 40.0401 45.2466 39.9511 45.3754 39.834C45.5043 39.7169 45.6072 39.5741 45.6777 39.4148C45.7481 39.2556 45.7845 39.0833 45.7845 38.9092C45.7845 38.735 45.7481 38.5628 45.6777 38.4036C45.6072 38.2443 45.5043 38.1015 45.3754 37.9844C45.2466 37.8672 45.0947 37.7783 44.9294 37.7233C44.7642 37.6683 44.5893 37.6485 44.4159 37.665H36.1364Z" fill="#575756"/>
<path fill-rule="evenodd" clip-rule="evenodd" d="M51.4513 59.393C51.1258 59.3112 50.7916 59.2695 50.456 59.2685C49.331 59.2685 48.2522 59.7154 47.4567 60.5109C46.6613 61.3063 46.2144 62.3852 46.2144 63.5101C46.2144 64.635 46.6613 65.7139 47.4567 66.5093C48.2522 67.3048 49.331 67.7516 50.456 67.7516C50.7916 67.7507 51.1258 67.7089 51.4513 67.6272C52.3749 67.4038 53.1965 66.8763 53.7841 66.1296C54.3717 65.3829 54.6912 64.4603 54.6912 63.5101C54.6912 62.5599 54.3717 61.6373 53.7841 60.8906C53.1965 60.1438 52.3749 59.6164 51.4513 59.393Z" fill="#B9BABC"/>
<path d="M50.4558 68.2042C49.7921 68.2027 49.1364 68.0605 48.5317 67.787C47.9271 67.5135 47.3873 67.1149 46.948 66.6175C46.5087 66.1201 46.1799 65.5352 45.9832 64.9014C45.7865 64.2676 45.7264 63.5993 45.807 62.9406C45.8875 62.2819 46.1068 61.6477 46.4504 61.08C46.7939 60.5122 47.254 60.0238 47.8002 59.6469C48.3464 59.2699 48.9663 59.0131 49.619 58.8933C50.2717 58.7735 50.9424 58.7935 51.5868 58.9519C52.7017 59.226 53.6775 59.8992 54.3296 60.8441C54.9817 61.7891 55.2649 62.9402 55.1256 64.0798C54.9862 65.2194 54.4341 66.2684 53.5736 67.0285C52.7131 67.7885 51.6038 68.2068 50.4558 68.2042ZM50.4558 59.7211C49.4508 59.7211 48.487 60.1203 47.7764 60.8309C47.0658 61.5415 46.6666 62.5053 46.6666 63.5102C46.6666 64.5151 47.0658 65.4789 47.7764 66.1895C48.487 66.9001 49.4508 67.2993 50.4558 67.2993C50.755 67.2995 51.0531 67.2635 51.3437 67.1919C52.1635 66.9869 52.8913 66.5138 53.4113 65.8478C53.9314 65.1817 54.2139 64.3609 54.2139 63.5159C54.2139 62.6708 53.9314 61.85 53.4113 61.1839C52.8913 60.5179 52.1635 60.0448 51.3437 59.8398C51.053 59.7675 50.7552 59.7277 50.4558 59.7211Z" fill="#575756"/>
<path d="M50.4444 67.4689C49.3944 67.4689 48.3875 67.0518 47.6451 66.3094C46.9027 65.567 46.4856 64.56 46.4856 63.5101C46.4856 62.4602 46.9027 61.4532 47.6451 60.7108C48.3875 59.9684 49.3944 59.5513 50.4444 59.5513C50.7569 59.553 51.0681 59.591 51.3719 59.6644C51.4079 59.6736 51.4418 59.6899 51.4716 59.7123C51.5013 59.7346 51.5264 59.7626 51.5453 59.7946C51.5642 59.8267 51.5766 59.8622 51.5818 59.899C51.587 59.9359 51.5848 59.9734 51.5755 60.0094C51.5669 60.0452 51.5512 60.079 51.5294 60.1087C51.5076 60.1384 51.4801 60.1635 51.4485 60.1825C51.417 60.2014 51.3819 60.2139 51.3454 60.2191C51.3089 60.2244 51.2718 60.2223 51.2361 60.213C50.7369 60.0915 50.2165 60.0851 49.7144 60.1941C49.2122 60.3031 48.7414 60.5247 48.3374 60.8422C47.9334 61.1597 47.6068 61.5648 47.3822 62.027C47.1576 62.4891 47.0409 62.9963 47.0409 63.5101C47.0409 64.0239 47.1576 64.5311 47.3822 64.9932C47.6068 65.4554 47.9334 65.8605 48.3374 66.178C48.7414 66.4955 49.2122 66.7171 49.7144 66.8261C50.2165 66.9351 50.7369 66.9287 51.2361 66.8072C51.2722 66.7979 51.3097 66.7957 51.3465 66.8009C51.3834 66.8061 51.4188 66.8185 51.4509 66.8374C51.4829 66.8563 51.5109 66.8813 51.5333 66.9111C51.5556 66.9409 51.5719 66.9747 51.5811 67.0108C51.5983 67.0842 51.586 67.1615 51.5468 67.226C51.5077 67.2904 51.4449 67.337 51.3719 67.3558C51.0681 67.4292 50.7569 67.4672 50.4444 67.4689Z" fill="white"/>
<path fill-rule="evenodd" clip-rule="evenodd" d="M35.4691 60.9652C35.4691 61.5244 35.3033 62.0711 34.9926 62.5361C34.6819 63.0012 34.2402 63.3636 33.7235 63.5776C33.2068 63.7916 32.6383 63.8476 32.0898 63.7385C31.5412 63.6294 31.0374 63.3601 30.6419 62.9646C30.2465 62.5692 29.9772 62.0653 29.8681 61.5168C29.7589 60.9683 29.8149 60.3997 30.029 59.883C30.243 59.3663 30.6054 58.9247 31.0704 58.614C31.5355 58.3033 32.0822 58.1375 32.6414 58.1375C33.3914 58.1375 34.1106 58.4354 34.6409 58.9657C35.1712 59.496 35.4691 60.2152 35.4691 60.9652Z" fill="#727272"/>
<path d="M32.6413 64.2454C31.9925 64.2454 31.3584 64.053 30.8189 63.6926C30.2795 63.3322 29.8591 62.8199 29.6108 62.2205C29.3626 61.6212 29.2976 60.9616 29.4242 60.3253C29.5507 59.6891 29.8631 59.1046 30.3219 58.6459C30.7806 58.1871 31.3651 57.8747 32.0014 57.7482C32.6376 57.6216 33.2972 57.6866 33.8965 57.9348C34.4959 58.1831 35.0082 58.6035 35.3686 59.1429C35.729 59.6823 35.9214 60.3165 35.9214 60.9653C35.9214 61.8352 35.5758 62.6695 34.9607 63.2847C34.3455 63.8998 33.5112 64.2454 32.6413 64.2454ZM32.6413 58.59C32.1715 58.59 31.7123 58.7293 31.3217 58.9903C30.931 59.2513 30.6266 59.6223 30.4468 60.0563C30.267 60.4903 30.22 60.9679 30.3117 61.4287C30.4033 61.8894 30.6295 62.3127 30.9617 62.6448C31.2939 62.977 31.7171 63.2033 32.1779 63.2949C32.6386 63.3866 33.1162 63.3395 33.5503 63.1597C33.9843 62.98 34.3552 62.6755 34.6162 62.2849C34.8772 61.8943 35.0165 61.4351 35.0165 60.9653C35.0165 60.3353 34.7663 59.7312 34.3209 59.2857C33.8754 58.8403 33.2712 58.59 32.6413 58.59Z" fill="#575756"/>
<path d="M32.6414 62.9446C32.0415 62.9446 31.4661 62.7062 31.0418 62.282C30.6176 61.8577 30.3793 61.2824 30.3793 60.6824C30.3793 60.0824 30.6176 59.507 31.0418 59.0828C31.4661 58.6586 32.0415 58.4202 32.6414 58.4202C32.7164 58.4202 32.7884 58.45 32.8414 58.503C32.8944 58.5561 32.9242 58.628 32.9242 58.703C32.9242 58.778 32.8944 58.8499 32.8414 58.9029C32.7884 58.956 32.7164 58.9858 32.6414 58.9858C32.1915 58.9858 31.7599 59.1645 31.4417 59.4827C31.1236 59.8009 30.9448 60.2324 30.9448 60.6824C30.9448 61.1324 31.1236 61.5639 31.4417 61.8821C31.7599 62.2003 32.1915 62.379 32.6414 62.379C32.7164 62.379 32.7884 62.4088 32.8414 62.4618C32.8944 62.5149 32.9242 62.5868 32.9242 62.6618C32.9242 62.7368 32.8944 62.8087 32.8414 62.8617C32.7884 62.9148 32.7164 62.9446 32.6414 62.9446Z" fill="white"/>
<path fill-rule="evenodd" clip-rule="evenodd" d="M79.0158 60.9652C79.0158 61.5244 78.8499 62.0711 78.5392 62.5361C78.2285 63.0012 77.7869 63.3636 77.2702 63.5776C76.7535 63.7916 76.1849 63.8476 75.6364 63.7385C75.0879 63.6294 74.584 63.3601 74.1886 62.9646C73.7931 62.5692 73.5238 62.0653 73.4147 61.5168C73.3056 60.9683 73.3616 60.3997 73.5756 59.883C73.7896 59.3663 74.1521 58.9247 74.6171 58.614C75.0821 58.3033 75.6288 58.1375 76.1881 58.1375C76.938 58.1375 77.6573 58.4354 78.1875 58.9657C78.7178 59.496 79.0158 60.2152 79.0158 60.9652Z" fill="#727272"/>
<path d="M76.1879 64.2454C75.5392 64.2454 74.905 64.053 74.3656 63.6926C73.8262 63.3322 73.4057 62.8199 73.1575 62.2205C72.9092 61.6212 72.8442 60.9616 72.9708 60.3253C73.0974 59.6891 73.4098 59.1046 73.8685 58.6459C74.3272 58.1871 74.9117 57.8747 75.548 57.7482C76.1843 57.6216 76.8438 57.6866 77.4432 57.9348C78.0425 58.1831 78.5548 58.6035 78.9152 59.1429C79.2757 59.6823 79.468 60.3165 79.468 60.9653C79.468 61.8352 79.1225 62.6695 78.5073 63.2847C77.8922 63.8998 77.0579 64.2454 76.1879 64.2454ZM76.1879 58.59C75.7181 58.59 75.2589 58.7293 74.8683 58.9903C74.4777 59.2513 74.1732 59.6223 73.9934 60.0563C73.8137 60.4903 73.7666 60.9679 73.8583 61.4287C73.9499 61.8894 74.1762 62.3127 74.5083 62.6448C74.8405 62.977 75.2638 63.2033 75.7245 63.2949C76.1853 63.3866 76.6629 63.3395 77.0969 63.1597C77.5309 62.98 77.9019 62.6755 78.1629 62.2849C78.4239 61.8943 78.5632 61.4351 78.5632 60.9653C78.5632 60.3353 78.3129 59.7312 77.8675 59.2857C77.422 58.8403 76.8179 58.59 76.1879 58.59Z" fill="#575756"/>
<path d="M76.1881 62.9446C75.5881 62.9446 75.0127 62.7062 74.5885 62.282C74.1642 61.8577 73.9259 61.2824 73.9259 60.6824C73.9259 60.0824 74.1642 59.507 74.5885 59.0828C75.0127 58.6586 75.5881 58.4202 76.1881 58.4202C76.2631 58.4202 76.335 58.45 76.388 58.503C76.441 58.5561 76.4708 58.628 76.4708 58.703C76.4708 58.778 76.441 58.8499 76.388 58.9029C76.335 58.956 76.2631 58.9858 76.1881 58.9858C75.7381 58.9858 75.3065 59.1645 74.9884 59.4827C74.6702 59.8009 74.4914 60.2324 74.4914 60.6824C74.4914 61.1324 74.6702 61.5639 74.9884 61.8821C75.3065 62.2003 75.7381 62.379 76.1881 62.379C76.2631 62.379 76.335 62.4088 76.388 62.4618C76.441 62.5149 76.4708 62.5868 76.4708 62.6618C76.4708 62.7368 76.441 62.8087 76.388 62.8617C76.335 62.9148 76.2631 62.9446 76.1881 62.9446Z" fill="white"/>
<path d="M48.4764 58.986C48.4263 58.9856 48.3772 58.9724 48.3336 58.9476C48.2901 58.9229 48.2536 58.8874 48.2276 58.8446L40.8756 45.8372C40.8487 45.7722 40.8464 45.6997 40.8693 45.6332C40.8921 45.5667 40.9385 45.5109 40.9996 45.4761C41.0607 45.4414 41.1324 45.4302 41.2012 45.4446C41.27 45.459 41.3312 45.4981 41.3732 45.5544L48.7253 58.5619C48.7607 58.6283 48.7693 58.7058 48.7493 58.7784C48.7294 58.851 48.6823 58.9132 48.6178 58.9521C48.5739 58.974 48.5255 58.9856 48.4764 58.986Z" fill="white"/>
<path fill-rule="evenodd" clip-rule="evenodd" d="M71.3413 37.2125C71.1158 37.2304 70.9054 37.3326 70.752 37.4987C70.5985 37.6648 70.5133 37.8827 70.5133 38.1088C70.5133 38.335 70.5985 38.5528 70.752 38.719C70.9054 38.8851 71.1158 38.9873 71.3413 39.0052C72.0875 39.0462 72.7872 39.3809 73.2874 39.9362C73.7876 40.4915 74.0476 41.2222 74.0106 41.9687C74.0013 42.0802 74.0152 42.1924 74.0514 42.2983C74.0877 42.4041 74.1455 42.5013 74.2212 42.5837C74.297 42.666 74.389 42.7318 74.4915 42.7768C74.5939 42.8217 74.7046 42.845 74.8165 42.845C74.9284 42.845 75.0391 42.8217 75.1416 42.7768C75.244 42.7318 75.336 42.666 75.4118 42.5837C75.4875 42.5013 75.5453 42.4041 75.5816 42.2983C75.6179 42.1924 75.6318 42.0802 75.6224 41.9687C75.6224 39.3502 73.6996 37.2125 71.3413 37.2125Z" fill="#B9BABC"/>
<path d="M74.8137 43.3203C74.4682 43.307 74.1419 43.1573 73.9066 42.9039C73.6713 42.6506 73.546 42.3142 73.5582 41.9686C73.5893 41.3453 73.3744 40.7347 72.9598 40.2683C72.5451 39.8018 71.9639 39.5168 71.3413 39.4746C70.9986 39.4524 70.6773 39.3006 70.4425 39.0501C70.2077 38.7996 70.077 38.4691 70.077 38.1258C70.077 37.7824 70.2077 37.452 70.4425 37.2014C70.6773 36.9509 70.9986 36.7992 71.3413 36.777C73.9484 36.777 76.0749 39.1127 76.0749 41.9856C76.081 42.3288 75.9524 42.6608 75.7167 42.9103C75.4809 43.1598 75.1567 43.307 74.8137 43.3203ZM71.3413 37.6649C71.2384 37.6851 71.1457 37.7404 71.0791 37.8214C71.0125 37.9024 70.9761 38.004 70.9761 38.1088C70.9761 38.2137 71.0125 38.3153 71.0791 38.3963C71.1457 38.4772 71.2384 38.5326 71.3413 38.5528C72.2029 38.5953 73.0132 38.975 73.5973 39.6099C74.1814 40.2448 74.4923 41.0839 74.4631 41.946C74.4514 41.9989 74.4518 42.0537 74.4641 42.1064C74.4765 42.1592 74.5005 42.2084 74.5344 42.2506C74.5683 42.2929 74.6113 42.3269 74.6601 42.3503C74.7089 42.3737 74.7624 42.3859 74.8165 42.3859C74.8707 42.3859 74.9241 42.3737 74.973 42.3503C75.0218 42.3269 75.0647 42.2929 75.0987 42.2506C75.1326 42.2084 75.1566 42.1592 75.1689 42.1064C75.1813 42.0537 75.1816 41.9989 75.17 41.946C75.17 39.599 73.4507 37.6649 71.3413 37.6649Z" fill="#575756"/>
<path fill-rule="evenodd" clip-rule="evenodd" d="M72.229 38.3435C72.2397 38.6321 72.1356 38.9132 71.9395 39.1252C71.7434 39.3372 71.4713 39.4629 71.1828 39.4746H65.3577C65.0577 39.4746 64.77 39.3555 64.5579 39.1433C64.3458 38.9312 64.2266 38.6435 64.2266 38.3435C64.2266 38.0436 64.3458 37.7559 64.5579 37.5437C64.77 37.3316 65.0577 37.2125 65.3577 37.2125H71.1828C71.4713 37.2242 71.7434 37.3499 71.9395 37.5619C72.1356 37.7739 72.2397 38.055 72.229 38.3435Z" fill="#727272"/>
<path fill-rule="evenodd" clip-rule="evenodd" d="M72.229 38.3435C72.2397 38.6321 72.1356 38.9132 71.9395 39.1252C71.7434 39.3372 71.4713 39.4629 71.1828 39.4746H65.3577C65.0577 39.4746 64.77 39.3555 64.5579 39.1433C64.3458 38.9312 64.2266 38.6435 64.2266 38.3435C64.2266 38.0436 64.3458 37.7559 64.5579 37.5437C64.77 37.3316 65.0577 37.2125 65.3577 37.2125H71.1828C71.4713 37.2242 71.7434 37.3499 71.9395 37.5619C72.1356 37.7739 72.2397 38.055 72.229 38.3435Z" fill="#747779"/>
<path d="M71.1829 39.9272H65.3579C64.9379 39.9272 64.5351 39.7603 64.2382 39.4634C63.9412 39.1664 63.7744 38.7636 63.7744 38.3436C63.7744 37.9237 63.9412 37.5209 64.2382 37.2239C64.5351 36.927 64.9379 36.7601 65.3579 36.7601H71.1829C71.3789 36.7608 71.5726 36.8013 71.7525 36.8791C71.9323 36.9568 72.0945 37.0703 72.2292 37.2126C72.5134 37.5198 72.6675 37.9252 72.659 38.3436C72.6698 38.7484 72.5211 39.1412 72.245 39.4374C71.9689 39.7336 71.5875 39.9095 71.1829 39.9272ZM65.3579 37.665C65.193 37.6863 65.0415 37.767 64.9317 37.8919C64.8219 38.0168 64.7614 38.1774 64.7614 38.3436C64.7614 38.5099 64.8219 38.6705 64.9317 38.7954C65.0415 38.9203 65.193 39.001 65.3579 39.0223H71.1829C71.3464 39.0037 71.4965 38.9228 71.6018 38.7964C71.7072 38.67 71.7597 38.5078 71.7485 38.3436C71.7496 38.1621 71.6831 37.9867 71.5618 37.8516C71.5103 37.7944 71.4475 37.7484 71.3775 37.7163C71.3075 37.6842 71.2317 37.6667 71.1547 37.665H65.3296H65.3579Z" fill="#575756"/>
<path d="M65.2502 39.1918C65.0624 39.143 64.8962 39.0332 64.7775 38.8796C64.6589 38.7261 64.5945 38.5376 64.5945 38.3435C64.5945 38.1495 64.6589 37.961 64.7775 37.8074C64.8962 37.6539 65.0624 37.5441 65.2502 37.4952H71.2959C71.6578 37.4952 71.9462 37.8685 71.9462 38.3435C71.9462 38.4185 71.9164 38.4905 71.8634 38.5435C71.8104 38.5965 71.7384 38.6263 71.6635 38.6263C71.5885 38.6263 71.5165 38.5965 71.4635 38.5435C71.4105 38.4905 71.3807 38.4185 71.3807 38.3435C71.3865 38.2922 71.3808 38.2403 71.3642 38.1914C71.3476 38.1425 71.3204 38.0979 71.2845 38.0608H65.2502C65.2172 38.0995 65.1921 38.1445 65.1766 38.1931C65.1611 38.2416 65.1553 38.2928 65.1597 38.3435C65.154 38.3948 65.1596 38.4468 65.1762 38.4957C65.1928 38.5445 65.22 38.5892 65.2559 38.6263C65.3309 38.6263 65.4028 38.6561 65.4558 38.7091C65.5089 38.7622 65.5386 38.8341 65.5386 38.9091C65.5372 38.9846 65.5061 39.0565 65.4522 39.1094C65.3983 39.1623 65.3257 39.1919 65.2502 39.1918Z" fill="white"/>
<path fill-rule="evenodd" clip-rule="evenodd" d="M46.8645 60.9652H41.0395C40.7395 60.9652 40.4518 60.846 40.2397 60.6339C40.0276 60.4218 39.9084 60.1341 39.9084 59.8341C39.9084 59.5341 40.0276 59.2464 40.2397 59.0343C40.4518 58.8222 40.7395 58.703 41.0395 58.703H46.8645C47.1645 58.703 47.4522 58.8222 47.6643 59.0343C47.8765 59.2464 47.9956 59.5341 47.9956 59.8341C47.9956 60.1341 47.8765 60.4218 47.6643 60.6339C47.4522 60.846 47.1645 60.9652 46.8645 60.9652Z" fill="#B9BABC"/>
<path d="M46.8646 61.4177H41.0396C40.6196 61.4177 40.2168 61.2509 39.9199 60.9539C39.6229 60.6569 39.4561 60.2542 39.4561 59.8342C39.4561 59.4142 39.6229 59.0114 39.9199 58.7145C40.2168 58.4175 40.6196 58.2507 41.0396 58.2507H46.8646C47.2846 58.2507 47.6874 58.4175 47.9843 58.7145C48.2813 59.0114 48.4481 59.4142 48.4481 59.8342C48.4481 60.2542 48.2813 60.6569 47.9843 60.9539C47.6874 61.2509 47.2846 61.4177 46.8646 61.4177ZM41.0396 59.1555C40.8761 59.1741 40.726 59.255 40.6207 59.3814C40.5153 59.5078 40.4628 59.67 40.474 59.8342C40.4655 59.9977 40.5191 60.1585 40.6239 60.2843C40.7287 60.4101 40.8772 60.4917 41.0396 60.5128H46.8646C47.027 60.4917 47.1755 60.4101 47.2803 60.2843C47.3851 60.1585 47.4387 59.9977 47.4302 59.8342C47.4414 59.67 47.3889 59.5078 47.2835 59.3814C47.1782 59.255 47.0281 59.1741 46.8646 59.1555H41.0396Z" fill="#575756"/>
<path d="M34.9033 39.2486C34.8133 39.2486 34.727 39.2129 34.6634 39.1492C34.5997 39.0856 34.564 38.9993 34.564 38.9093C34.5655 38.5198 34.7208 38.1466 34.9963 37.8712C35.2717 37.5958 35.6449 37.4404 36.0344 37.4389H39.9932C40.0831 37.4389 40.1695 37.4746 40.2331 37.5383C40.2967 37.6019 40.3325 37.6882 40.3325 37.7782C40.3325 37.8682 40.2967 37.9545 40.2331 38.0181C40.1695 38.0818 40.0831 38.1175 39.9932 38.1175H36.0344C35.8244 38.1175 35.623 38.201 35.4745 38.3494C35.326 38.4979 35.2426 38.6993 35.2426 38.9093C35.2426 38.9993 35.2069 39.0856 35.1432 39.1492C35.0796 39.2129 34.9933 39.2486 34.9033 39.2486Z" fill="white"/>
</g>
<defs>
<clipPath id="clip0_1152_8810">
<rect width="71.3656" height="40.0403" fill="white" transform="translate(18.7459 36.7601)"/>
</clipPath>
</defs>
</svg>
