<svg width="140" height="141" fill="none" xmlns="http://www.w3.org/2000/svg"><path fill-rule="evenodd" clip-rule="evenodd" d="M56.723 136.116c-15.388-6.327-26.558-24.742-31.846-44.294-5.28-19.594-4.665-40.3 4.012-51.51 8.692-11.188 25.437-12.838 38.46-11.169 13.025 1.67 22.313 6.634 36.088 14.974 13.768 8.382 32.014 20.182 34.11 35.234 2.073 15.07-12.04 33.385-28.914 45.396-16.86 12.038-36.508 17.722-51.91 11.369Z" fill="#FFF3DA"/><path fill-rule="evenodd" clip-rule="evenodd" d="M80.17 60.242c5.126 21.233-7.932 42.6-29.165 47.725-21.232 5.126-42.6-7.932-47.725-29.165-5.125-21.232 7.933-42.6 29.166-47.725 21.232-5.125 42.6 7.933 47.725 29.165Z" fill="#fff" stroke="#1A1A1A" stroke-width="2.194"/><path fill-rule="evenodd" clip-rule="evenodd" d="m60.062 101.699-2.636.664a2.69 2.69 0 0 1-3.3-1.972l-.012-.052a2.726 2.726 0 0 1 1.938-3.32l.053-.013a1.752 1.752 0 0 0 1.25-2.12l-.185-.766c-.345-1.314.444-2.68 1.764-2.998l.054-.013c1.71-.44 2.74-2.2 2.3-3.91l-2.384-9.296a2.83 2.83 0 0 0-3.457-2.045l-.054.013a2.83 2.83 0 0 0-2.045 3.457l.256.945c.313 1.182-.402 2.39-1.611 2.71l-.053.012c-1.183.314-2.39-.401-2.71-1.61l-.114-.476c-.403-1.553-1.998-2.482-3.557-2.106l-7.398 1.898a2.913 2.913 0 0 0-2.08 3.55l3.119 12.11a2.826 2.826 0 0 1-2.02 3.451l-2.027.517a2.826 2.826 0 0 0-2.02 3.452l1.112 4.374a39.462 39.462 0 0 0 16.88-.384 39.494 39.494 0 0 0 12.333-5.325c-.904-.733-2.16-1.073-3.396-.747ZM51.997 31.335 41.942 33.93a2.652 2.652 0 0 0-1.899 3.255L42 44.82a2.686 2.686 0 0 0 3.234 1.932l13.768-3.547c1.236-.326 2.482.436 2.802 1.645l.038.158a1.978 1.978 0 0 1-1.43 2.415l-9.606 2.486A2.518 2.518 0 0 0 49 52.975l.012.053c.346 1.314-.456 2.626-1.744 2.965l-1.315.345c-.529.128-1.047-.167-1.174-.694l-.186-.768c-.268-.997-1.285-1.618-2.283-1.35l-3.924 1.004c-.997.268-1.619 1.285-1.35 2.283l.006.027c.25.917-.331 1.869-1.25 2.118l-3.422.883a2.373 2.373 0 0 0-1.705 2.9l1.885 7.346c.333 1.262 1.612 2.044 2.875 1.711l3.263-.844a1.909 1.909 0 0 0 1.37-2.316l-.006-.026a1.478 1.478 0 0 1 1.05-1.79l8.45-2.181c1.261-.332 2.566.443 2.899 1.705l.659 2.61c.357 1.367 1.761 2.202 3.129 1.845l6.237-1.618a2.529 2.529 0 0 1 3.096 1.825l.013.053c.333 1.262 1.605 2.017 2.841 1.691l1.632-.421a1.596 1.596 0 0 1 1.923 1.129l.044.185a2.442 2.442 0 0 0 2.94 1.751l6.21-1.61c.518-4.46.239-9.09-.877-13.714-3.464-14.46-14.928-25.002-28.3-28.737ZM21.033 100.914l.013.053a2.518 2.518 0 0 0 3.063 1.805l.054-.012c1.34-.353 2.156-1.724 1.804-3.065l-1.795-6.977a3.168 3.168 0 0 0-3.878-2.28l-.053.014c-.997.268-2.014-.353-2.257-1.358l-.48-1.87a1.322 1.322 0 0 1 .93-1.593l.027-.007c1.367-.358 2.203-1.762 1.844-3.13l-2.837-11.059c-.422-1.632-2.088-2.627-3.72-2.206l-.053.013a2.645 2.645 0 0 1-3.228-1.905l-.013-.053c-.383-1.474.506-3.003 1.98-3.386l.237-.058c2.108-.536 3.378-2.688 2.835-4.822l-.007-.026.159-.039c2.372-.6 3.775-3.009 3.175-5.38l-.013-.053 2.081-.53c1.5-.39 2.39-1.919 2.005-3.392l-1.393-5.424a2.772 2.772 0 0 0-3.391-2.005l-.053.012c-1.104.295-2.245-.38-2.546-1.51l-.179-.74C4.924 49.353-.146 64.027 3.374 78.61a39.454 39.454 0 0 0 13.682 21.585l1.95-.499c.898-.217 1.81.318 2.027 1.217Z" fill="#FFC244" stroke="#1A1A1A" stroke-width="2.194"/><path fill-rule="evenodd" clip-rule="evenodd" d="M16.958 11.747a1.051 1.051 0 0 0-1.38-.506 1.05 1.05 0 0 0-.505 1.38l17.018 35.29 1.834-.973-16.967-35.191Z" fill="#fff"/><path fill-rule="evenodd" clip-rule="evenodd" d="M17.119 10.774a1.474 1.474 0 0 0-1.937-.709 1.474 1.474 0 0 0-.708 1.936l17.392 36.064 2.576-1.36-17.323-35.93Z" fill="#FFC333" stroke="#1A1A1A" stroke-width="2.194"/><path d="m36.258 45.835-6.448 3.279" stroke="#1C1C1B" stroke-width="1.993" stroke-linecap="round" stroke-linejoin="round"/><path fill-rule="evenodd" clip-rule="evenodd" d="M50.11 17.726 22.481 30.575l-7.399-15.943L42.718 1.81l-1.932 10.532 9.324 5.384Z" fill="#fff" stroke="#1A1A1A" stroke-width="2.194" stroke-linejoin="round"/><path fill-rule="evenodd" clip-rule="evenodd" d="M28.863 11.552c-1.934.845-2.962 2.955-2.275 4.71.26.685.753 1.226 1.413 1.587l.133.072 2.786 1.567s.369.225.852.014l.134-.064.189-.077.106-.055c.483-.212.57-.64.57-.64l.905-3.127.056-.15c.228-.736.19-1.48-.069-2.165-.68-1.73-2.86-2.49-4.8-1.672Zm3.106 3.53-.051.175-.664 2.309-2.055-1.145-.165-.09c-.33-.18-.594-.46-.723-.803-.363-.9.15-1.954 1.146-2.384.995-.43 2.071-.046 2.434.854.185.327.203.7.078 1.084ZM31.783 21.543c-.187-.485.07-1.064.633-1.296.562-.232 1.126-.035 1.314.45.182.46-.076 1.038-.633 1.295-.562.232-1.131.01-1.314-.449Z" fill="#FFC333"/><path fill-rule="evenodd" clip-rule="evenodd" d="m96.922 80.628-2.415-1.476a.987.987 0 0 1-.327-1.352l2.936-4.803a.985.985 0 0 1 1.351-.326l2.415 1.476c.462.281.609.89.327 1.352L98.274 80.3a.986.986 0 0 1-1.352.327Z" fill="#FFC333" stroke="#1A1A1A" stroke-width="2.194"/><path fill-rule="evenodd" clip-rule="evenodd" d="m93.236 91.26-6.51-3.978a.986.986 0 0 1-.326-1.352l6.897-11.285a.987.987 0 0 1 1.351-.326l6.509 3.978c.462.282.609.89.327 1.352l-6.896 11.284a.987.987 0 0 1-1.352.327Z" fill="#fff" stroke="#1A1A1A" stroke-width="2.194"/><path fill-rule="evenodd" clip-rule="evenodd" d="M88.73 91.317a7.996 7.996 0 0 0-10.992 2.654l13.645 8.338a7.996 7.996 0 0 0-2.653-10.992Z" fill="#fff" stroke="#1A1A1A" stroke-width="2.194" stroke-linecap="round" stroke-linejoin="round"/><path d="m89.981 89.27-1.25 2.048M84.561 98.14l-1.251 2.047" stroke="#1A1A1A" stroke-width="2.194" stroke-linecap="round" stroke-linejoin="round"/><path fill-rule="evenodd" clip-rule="evenodd" d="M83.424 103.068a1.599 1.599 0 1 1-2.728-1.668 1.599 1.599 0 0 1 2.728 1.668Z" fill="#FFC333" stroke="#1A1A1A" stroke-width="2.194"/><path fill-rule="evenodd" clip-rule="evenodd" d="M83.045 82.221 72.129 75.55l4.586-7.505 10.916 6.671-4.586 7.505Z" fill="#fff" stroke="#1A1A1A" stroke-width="2.194" stroke-linejoin="round"/><path d="m89.64 80.629-4.094-2.502" stroke="#1A1A1A" stroke-width="2.194" stroke-linecap="round" stroke-linejoin="round"/><path fill-rule="evenodd" clip-rule="evenodd" d="m104.006 84.722 10.915 6.671-4.585 7.505-10.916-6.67 4.586-7.506Z" fill="#fff" stroke="#1A1A1A" stroke-width="2.194" stroke-linejoin="round"/><path d="m97.41 86.314 4.094 2.502M82.173 71.38l-4.586 7.505M74.214 72.139l10.915 6.67M102.186 89.233l10.234 6.254M109.464 88.058l-4.587 7.504M83.348 108.02a6.77 6.77 0 0 1-3.888-.425 6.764 6.764 0 0 1-3.046-2.551M83.713 114.444c-2.34.435-4.83.212-7.184-.786a12.492 12.492 0 0 1-5.629-4.713" stroke="#1A1A1A" stroke-width="2.194" stroke-linecap="round" stroke-linejoin="round"/></svg>