<svg width="108" height="114" viewBox="0 0 108 114" fill="none" xmlns="http://www.w3.org/2000/svg">
<g clip-path="url(#clip0_1152_8806)">
<path opacity="0.1" fill-rule="evenodd" clip-rule="evenodd" d="M87.3606 80.0692C87.3606 81.8111 72.6566 83.2193 54.5027 83.2193C36.3489 83.2193 21.6392 81.8111 21.6392 80.0692C21.6392 78.3274 36.3432 76.9135 54.5027 76.9135C72.6622 76.9135 87.3606 78.3274 87.3606 80.0692Z" fill="#171C20"/>
<path fill-rule="evenodd" clip-rule="evenodd" d="M46.7265 71.1393C46.7431 72.9274 46.2295 74.6803 45.2507 76.1767C44.2718 77.6731 42.8715 78.846 41.2266 79.5472C39.5816 80.2484 37.7658 80.4465 36.0084 80.1165C34.2509 79.7866 32.6307 78.9433 31.3521 77.6931C30.0736 76.443 29.1941 74.842 28.8247 73.0924C28.4554 71.3429 28.6127 69.523 29.2768 67.8628C29.9408 66.2025 31.082 64.7762 32.5561 63.764C34.0301 62.7518 35.7711 62.199 37.5591 62.1755C38.7502 62.1598 39.9327 62.3794 41.0388 62.8218C42.1448 63.2642 43.1526 63.9207 44.0043 64.7535C44.8561 65.5863 45.535 66.5791 46.0021 67.675C46.4693 68.7708 46.7154 69.9481 46.7265 71.1393Z" fill="white"/>
<path d="M37.6609 81.0137C35.104 80.9987 32.6574 79.9706 30.8573 78.1546C29.0572 76.3387 28.0506 73.8831 28.0581 71.3261C28.0656 68.7692 29.0866 66.3196 30.8972 64.5142C32.7079 62.7088 35.1605 61.695 37.7175 61.695C40.2744 61.695 42.727 62.7088 44.5377 64.5142C46.3484 66.3196 47.3694 68.7692 47.3769 71.3261C47.3844 73.8831 46.3777 76.3387 44.5777 78.1546C42.7776 79.9706 40.3309 80.9987 37.774 81.0137H37.6609ZM37.6609 62.8825H37.5591C36.4614 62.8888 35.3758 63.1112 34.3641 63.5371C33.3523 63.963 32.4344 64.584 31.6627 65.3647C30.1042 66.9412 29.2358 69.0724 29.2485 71.2892C29.2613 73.5061 30.1541 75.6271 31.7307 77.1856C33.3073 78.7442 35.4384 79.6126 37.6553 79.5998H37.7514C39.9683 79.5878 42.0896 78.6957 43.6486 77.1196C45.2077 75.5436 46.0769 73.4128 46.0649 71.1959C46.0529 68.979 45.1607 66.8577 43.5847 65.2987C42.0086 63.7396 39.8778 62.8705 37.6609 62.8825Z" fill="#575756"/>
<path fill-rule="evenodd" clip-rule="evenodd" d="M57.9922 37.4671C57.3071 37.4657 56.6499 37.1952 56.1622 36.7139C55.6746 36.2325 55.3955 35.5789 55.3851 34.8938C55.3814 34.5515 55.4451 34.2117 55.5727 33.894C55.7003 33.5762 55.8892 33.2867 56.1287 33.042C56.3682 32.7973 56.6535 32.6021 56.9684 32.4677C57.2833 32.3332 57.6216 32.2621 57.964 32.2584L64.1001 32.1849C64.7915 32.1767 65.458 32.4434 65.9527 32.9265C66.4475 33.4096 66.7301 34.0695 66.7383 34.7609C66.7466 35.4524 66.4798 36.1188 65.9967 36.6136C65.5136 37.1084 64.8538 37.3909 64.1623 37.3992L57.9922 37.4671Z" fill="#B9BABC"/>
<path d="M57.9978 38.1514C57.1265 38.1486 56.2912 37.8039 55.6715 37.1916C55.0517 36.5792 54.697 35.7481 54.6837 34.8769C54.6747 33.999 55.0144 33.1533 55.6283 32.5255C56.2423 31.8978 57.0802 31.5394 57.9582 31.529L64.1 31.4554C64.9753 31.4552 65.8159 31.7978 66.4417 32.4099C67.0675 33.022 67.4287 33.8548 67.448 34.7299C67.457 35.6094 67.1167 36.4565 66.5017 37.0853C65.8867 37.7141 65.0473 38.0731 64.1678 38.0836L57.9978 38.1514ZM64.1 32.8693L57.9752 32.9428C57.7256 32.945 57.4789 32.9964 57.2493 33.0939C57.0196 33.1915 56.8113 33.3333 56.6364 33.5113C56.4616 33.6894 56.3235 33.9001 56.23 34.1315C56.1366 34.3629 56.0897 34.6104 56.0919 34.86C56.0978 35.359 56.2999 35.8357 56.6544 36.1871C57.0089 36.5384 57.4874 36.7361 57.9865 36.7376L64.1509 36.6697C64.3997 36.6686 64.6458 36.618 64.875 36.5209C65.1041 36.4238 65.3116 36.2822 65.4855 36.1042C65.7517 35.8362 65.9317 35.4948 66.0024 35.1238C66.0731 34.7528 66.0313 34.3691 65.8824 34.022C65.7335 33.6749 65.4842 33.3803 65.1666 33.1759C64.849 32.9715 64.4776 32.8667 64.1 32.8749V32.8693Z" fill="#575756"/>
<path fill-rule="evenodd" clip-rule="evenodd" d="M75.1335 34.7411C75.1424 35.4783 74.9324 36.2017 74.5301 36.8196C74.1278 37.4375 73.5512 37.9222 72.8734 38.2123C72.1955 38.5025 71.4469 38.585 70.7221 38.4496C69.9973 38.3141 69.329 37.9667 68.8017 37.4513C68.2744 36.9359 67.9119 36.2756 67.7599 35.5541C67.608 34.8326 67.6735 34.0822 67.9481 33.398C68.2227 32.7137 68.6941 32.1262 69.3027 31.71C69.9113 31.2937 70.6297 31.0673 71.367 31.0594C72.3545 31.0488 73.3058 31.4306 74.012 32.1209C74.7182 32.8112 75.1216 33.7536 75.1335 34.7411Z" fill="#FFC244"/>
<path d="M71.4067 39.2146C70.2406 39.2132 69.1219 38.7524 68.2931 37.932C67.4642 37.1116 66.992 35.9977 66.9786 34.8316C66.9719 34.2501 67.0798 33.673 67.2962 33.1332C67.5125 32.5934 67.8331 32.1015 68.2396 31.6855C68.646 31.2696 69.1304 30.9378 69.6651 30.7091C70.1998 30.4804 70.7743 30.3592 71.3559 30.3526C71.9374 30.3459 72.5145 30.4538 73.0543 30.6702C73.5941 30.8865 74.086 31.2071 74.502 31.6136C74.9179 32.02 75.2497 32.5044 75.4784 33.0391C75.7071 33.5738 75.8282 34.1483 75.8349 34.7298C75.8485 35.9048 75.3951 37.0371 74.5744 37.8781C73.7536 38.719 72.6326 39.1997 71.4576 39.2146H71.4067ZM71.4067 31.7664H71.3672C70.7702 31.7728 70.1886 31.9562 69.6961 32.2935C69.2035 32.6308 68.8222 33.1068 68.6005 33.6611C68.3788 34.2154 68.3267 34.823 68.4507 35.4069C68.5748 35.9909 68.8694 36.5248 69.2973 36.9411C69.8592 37.4951 70.6176 37.8042 71.4067 37.8007H71.4463C71.8422 37.7956 72.2332 37.7125 72.5969 37.5562C72.9606 37.3999 73.29 37.1735 73.5663 36.8899C73.8425 36.6063 74.0602 36.2711 74.2068 35.9034C74.3535 35.5357 74.4263 35.1427 74.4211 34.7468C74.4121 33.9533 74.0906 33.1952 73.5263 32.6373C72.962 32.0793 72.2004 31.7664 71.4067 31.7664Z" fill="#575756"/>
<path fill-rule="evenodd" clip-rule="evenodd" d="M74.0535 56.2656L69.795 38.9601L63.1159 36.3699L64.8126 55.5983L54.0673 62.6336L46.342 62.8146C45.7915 62.8011 45.2439 62.8987 44.7319 63.1015C44.22 63.3043 43.7541 63.6082 43.3621 63.995C42.9701 64.3817 42.6601 64.8435 42.4504 65.3527C42.2408 65.8619 42.1359 66.4082 42.142 66.9588C42.1481 67.5095 42.265 68.0532 42.4858 68.5577C42.7066 69.0622 43.0268 69.517 43.4272 69.895C43.8277 70.273 44.3001 70.5665 44.8165 70.758C45.3328 70.9494 45.8824 71.0349 46.4325 71.0093L61.8322 70.8057C62.6064 70.7988 63.3628 70.5726 64.0136 70.1533C64.6644 69.7339 65.183 69.1386 65.5093 68.4365C65.8355 67.7343 65.9559 66.9541 65.8566 66.1862C65.7573 65.4184 65.4424 64.6945 64.9483 64.0984L67.5781 57.3119L74.0535 56.2656Z" fill="#96D5E9"/>
<path d="M46.3646 71.6991C45.0897 71.7066 43.864 71.2073 42.9572 70.3111C42.0504 69.4149 41.5368 68.1952 41.5293 66.9203C41.5218 65.6454 42.021 64.4197 42.9172 63.5129C43.8134 62.6061 45.0332 62.0924 46.3081 62.0849L53.8241 61.9096L64.0547 55.2136L62.4034 36.432C62.3925 36.3119 62.4129 36.191 62.4624 36.081C62.5119 35.9711 62.589 35.8757 62.6861 35.8043C62.7821 35.7325 62.8945 35.686 63.0131 35.6692C63.1318 35.6524 63.2527 35.6658 63.3648 35.7081L70.0495 38.2983C70.1552 38.3401 70.2493 38.4066 70.3241 38.4921C70.3988 38.5777 70.4521 38.68 70.4793 38.7903L74.7378 56.0959C74.7601 56.19 74.763 56.2876 74.7463 56.3829C74.7297 56.4781 74.6938 56.569 74.6409 56.65C74.588 56.7309 74.5191 56.8003 74.4386 56.8538C74.358 56.9072 74.2674 56.9438 74.1723 56.9611L68.0757 57.9282L65.7514 63.9625C66.2919 64.7464 66.5854 65.6741 66.594 66.6262C66.6061 67.9003 66.1131 69.1273 65.2228 70.0387C64.3325 70.9502 63.1175 71.472 61.8435 71.4899L46.4438 71.6935L46.3646 71.6991ZM63.8964 37.4387L65.4799 55.536C65.4918 55.663 65.4686 55.7909 65.4127 55.9056C65.3569 56.0203 65.2706 56.1174 65.1632 56.1863L54.4179 63.2273C54.3072 63.296 54.1805 63.335 54.0503 63.3404L46.3364 63.4818C45.6646 63.4879 45.0098 63.6933 44.4549 64.0718C43.9 64.4504 43.4699 64.9852 43.2192 65.6084C42.9684 66.2316 42.9083 66.9152 43.0464 67.5726C43.1845 68.23 43.5147 68.8316 43.995 69.3012C44.3128 69.6132 44.6895 69.8588 45.1031 70.0239C45.5167 70.1889 45.959 70.2701 46.4042 70.2626L61.7982 70.059C62.4386 70.0519 63.064 69.8638 63.6019 69.5162C64.1399 69.1687 64.5685 68.676 64.8382 68.0951C65.108 67.5143 65.2078 66.8689 65.1262 66.2337C65.0446 65.5984 64.7849 64.9993 64.3771 64.5054C64.2986 64.4087 64.2468 64.293 64.2269 64.1699C64.2071 64.0469 64.2199 63.9207 64.264 63.8042L66.8994 57.0177C66.9452 56.9001 67.022 56.797 67.1215 56.7194C67.2211 56.6417 67.3397 56.5924 67.4649 56.5766L73.2052 55.666L69.2464 39.4633L63.8964 37.4387Z" fill="#575756"/>
<path fill-rule="evenodd" clip-rule="evenodd" d="M84.2898 70.6133C84.3064 72.4011 83.793 74.1538 82.8143 75.6501C81.8357 77.1464 80.4357 78.3193 78.7911 79.0206C77.1465 79.722 75.331 79.9204 73.5737 79.5909C71.8164 79.2613 70.1961 78.4186 68.9174 77.169C67.6387 75.9194 66.7588 74.319 66.3888 72.5698C66.0188 70.8206 66.1752 69.001 66.8385 67.3407C67.5017 65.6803 68.6419 64.2536 70.1153 63.2408C71.5886 62.2279 73.329 61.6741 75.1167 61.6495C76.3083 61.633 77.4914 61.8522 78.5981 62.2942C79.7048 62.7363 80.7133 63.3926 81.5656 64.2255C82.418 65.0584 83.0974 66.0515 83.5649 67.1477C84.0324 68.2439 84.2787 69.4216 84.2898 70.6133Z" fill="white"/>
<path d="M75.2187 80.4933C72.6653 80.4484 70.2307 79.4064 68.4356 77.59C66.6404 75.7736 65.6271 73.3269 65.6123 70.7731C65.5976 68.2194 66.5825 65.7612 68.3565 63.9241C70.1305 62.087 72.5529 61.0169 75.1056 60.9425H75.2244C77.7934 60.9512 80.2561 61.9695 82.0811 63.7776C83.9062 65.5857 84.9473 68.0388 84.9799 70.6076C84.9941 71.891 84.7554 73.1646 84.2773 74.3557C83.7993 75.5468 83.0913 76.632 82.1938 77.5495C81.2963 78.4669 80.2268 79.1986 79.0465 79.7027C77.8662 80.2069 76.5982 80.4736 75.3148 80.4876L75.2187 80.4933ZM75.2187 62.3564H75.1169C73.4638 62.3769 71.8539 62.8869 70.4905 63.8218C69.1271 64.7568 68.0713 66.0748 67.4565 67.6094C66.8416 69.144 66.6954 70.8264 67.0361 72.4441C67.3769 74.0618 68.1894 75.5423 69.371 76.6985C70.9588 78.2454 73.0952 79.0997 75.3118 79.0743C77.5284 79.0488 79.6446 78.1457 81.1965 76.5628C81.9651 75.7787 82.5711 74.8504 82.9797 73.8313C83.3883 72.8122 83.5914 71.7224 83.5774 70.6246C83.5507 68.4248 82.6595 66.3239 81.0966 64.7757C79.5336 63.2276 77.4243 62.3565 75.2244 62.3507L75.2187 62.3564Z" fill="#575756"/>
<path fill-rule="evenodd" clip-rule="evenodd" d="M79.3527 70.6701C79.3627 71.4879 79.1299 72.2903 78.6838 72.9757C78.2377 73.6612 77.5983 74.199 76.8464 74.521C76.0946 74.8429 75.2642 74.9347 74.4602 74.7846C73.6562 74.6345 72.9148 74.2493 72.3298 73.6778C71.7448 73.1062 71.3425 72.374 71.1737 71.5737C71.005 70.7735 71.0774 69.9411 71.3818 69.182C71.6862 68.4229 72.2089 67.7712 72.8838 67.3092C73.5587 66.8473 74.3555 66.5959 75.1733 66.5869C76.2688 66.5748 77.3243 66.998 78.1079 67.7636C78.8916 68.5293 79.3392 69.5746 79.3527 70.6701Z" fill="#B9BABC"/>
<path d="M75.2183 75.5563C73.9632 75.5205 72.7711 74.9985 71.8937 74.1004C71.0162 73.2023 70.522 71.9983 70.5154 70.7428C70.5088 69.4872 70.9903 68.2781 71.8583 67.3708C72.7262 66.4635 73.9128 65.9289 75.1674 65.8799H75.224C76.4791 65.9157 77.6712 66.4378 78.5487 67.3359C79.4261 68.234 79.9203 69.4379 79.9269 70.6935C79.9335 71.9491 79.452 73.1582 78.5841 74.0655C77.7161 74.9728 76.5295 75.5073 75.2749 75.5563H75.2183ZM75.2183 67.2938H75.1787C74.5011 67.3 73.8406 67.5072 73.2809 67.8892C72.7212 68.2713 72.2876 68.8109 72.035 69.4397C71.7824 70.0685 71.7222 70.7582 71.862 71.4212C72.0018 72.0843 72.3354 72.6909 72.8204 73.1641C73.4576 73.793 74.3174 74.1447 75.2127 74.1425H75.2579C76.1659 74.1306 77.0324 73.7599 77.6681 73.1115C78.3038 72.463 78.6572 71.5895 78.6512 70.6814C78.6393 69.7802 78.2741 68.9198 77.6342 68.2851C76.9943 67.6505 76.1309 67.2925 75.2296 67.2881L75.2183 67.2938Z" fill="#575756"/>
<path fill-rule="evenodd" clip-rule="evenodd" d="M41.7951 71.1959C41.8051 72.0137 41.5723 72.8161 41.1262 73.5016C40.6801 74.1871 40.0406 74.7248 39.2888 75.0468C38.537 75.3688 37.7066 75.4605 36.9026 75.3104C36.0986 75.1603 35.3572 74.7752 34.7722 74.2036C34.1872 73.6321 33.7849 72.8998 33.6161 72.0996C33.4474 71.2993 33.5198 70.467 33.8242 69.7079C34.1286 68.9488 34.6513 68.297 35.3262 67.835C36.0011 67.3731 36.7979 67.1217 37.6157 67.1127C38.1583 67.106 38.697 67.2063 39.2008 67.4079C39.7046 67.6096 40.1638 67.9086 40.5519 68.2878C40.9401 68.667 41.2497 69.1191 41.463 69.6181C41.6763 70.1171 41.7891 70.6533 41.7951 71.1959Z" fill="#B9BABC"/>
<path d="M37.661 76.0821C36.4059 76.0463 35.2138 75.5243 34.3363 74.6262C33.4589 73.7281 32.9647 72.5241 32.9581 71.2685C32.9515 70.0129 33.433 68.8039 34.3009 67.8966C35.1689 66.9893 36.3555 66.4547 37.6101 66.4057H37.6667C38.9389 66.4071 40.1595 66.9093 41.0643 67.8036C41.9692 68.6979 42.4857 69.9124 42.502 71.1846C42.5156 72.4675 42.0193 73.7034 41.1222 74.6207C40.2251 75.5379 39.0005 76.0616 37.7176 76.0765L37.661 76.0821ZM37.661 67.8196H37.6214C36.9438 67.8258 36.2833 68.033 35.7236 68.415C35.1639 68.7971 34.7303 69.3367 34.4777 69.9655C34.2251 70.5943 34.1649 71.2839 34.3047 71.947C34.4445 72.6101 34.7781 73.2167 35.2631 73.6899C35.9163 74.3181 36.7887 74.667 37.6949 74.6626C38.6024 74.6581 39.4709 74.2933 40.1094 73.6485C40.7478 73.0036 41.104 72.1316 41.0995 71.2241C41.095 70.3167 40.7302 69.4482 40.0854 68.8097C39.4405 68.1712 38.5685 67.8151 37.661 67.8196Z" fill="#575756"/>
<path fill-rule="evenodd" clip-rule="evenodd" d="M69.071 56.4636C66.0432 57.6496 63.5893 59.9575 62.2199 62.907C60.8505 65.8564 60.6711 69.2203 61.719 72.2987C61.7734 72.4366 61.8797 72.5476 62.0151 72.6079C62.1504 72.6681 62.3041 72.6729 62.4429 72.6211L84.8949 63.776C85.032 63.7195 85.1415 63.6114 85.1997 63.4749C85.2579 63.3384 85.2601 63.1846 85.2059 63.0465C83.8759 60.0876 81.4587 57.7536 78.455 56.5281C75.4513 55.3026 72.0913 55.2795 69.071 56.4636Z" fill="#96D5E9"/>
<path d="M61.9451 73.5543C61.8022 73.5539 61.6627 73.5106 61.5447 73.4299C61.4267 73.3492 61.3356 73.2349 61.2835 73.1019C59.9939 69.8091 60.062 66.1394 61.4729 62.8967C62.8838 59.6541 65.5225 57.1029 68.8108 55.802C72.1036 54.5124 75.7733 54.5805 79.0159 55.9914C82.2586 57.4024 84.8098 60.041 86.1107 63.3293C86.1496 63.4185 86.1697 63.5148 86.1697 63.6121C86.1697 63.7094 86.1496 63.8057 86.1107 63.8949C86.0744 63.981 86.0212 64.0589 85.9542 64.124C85.8871 64.1891 85.8076 64.2401 85.7205 64.2738L62.2166 73.5317C62.1284 73.5567 62.0362 73.5644 61.9451 73.5543ZM69.3311 57.1197C66.4993 58.2305 64.1996 60.3822 62.9031 63.1339C61.6067 65.8857 61.4116 69.029 62.358 71.9199L84.5102 63.1936C83.2275 60.4388 80.9426 58.2768 78.1212 57.1482C75.2998 56.0196 72.1541 56.0094 69.3254 57.1197H69.3311Z" fill="#575756"/>
<path fill-rule="evenodd" clip-rule="evenodd" d="M71.2145 39.9554L62.4146 38.4568L62.3581 31.8117L71.124 30.115L71.2145 39.9554Z" fill="#96D5E9"/>
<path d="M71.2145 40.6623H71.0957L62.2959 39.1636C62.1362 39.1321 61.9924 39.046 61.8893 38.9201C61.7861 38.7942 61.7299 38.6364 61.7303 38.4736L61.6286 31.8116C61.6276 31.6474 61.6834 31.488 61.7864 31.3602C61.8895 31.2324 62.0335 31.1442 62.1941 31.1103L70.96 29.4137C71.0593 29.3972 71.1609 29.4017 71.2584 29.4271C71.3558 29.4524 71.4468 29.4979 71.5255 29.5607C71.6092 29.6289 71.6761 29.7153 71.7212 29.8133C71.7663 29.9113 71.7883 30.0184 71.7857 30.1262L71.8988 39.961C71.9041 40.0681 71.8844 40.175 71.8412 40.2732C71.798 40.3713 71.7325 40.4581 71.6499 40.5265C71.5238 40.6187 71.3706 40.6664 71.2145 40.6623ZM63.1103 37.8346L70.4962 39.0901L70.4057 30.9463L63.0537 32.3714L63.1103 37.8346Z" fill="#575756"/>
<path fill-rule="evenodd" clip-rule="evenodd" d="M30.897 54.4333L50.1254 54.2071L50.2668 66.4454L25.4565 66.7338L30.897 54.4333Z" fill="#96D5E9"/>
<path d="M25.4453 67.4406C25.3321 67.4361 25.2216 67.4045 25.1232 67.3484C25.0248 67.2923 24.9413 67.2134 24.8797 67.1183C24.8154 67.0195 24.7765 66.9064 24.7667 66.7889C24.7568 66.6714 24.7762 66.5534 24.8232 66.4453L30.2524 54.1504C30.307 54.0264 30.3965 53.9208 30.5099 53.8465C30.6233 53.7722 30.7559 53.7324 30.8914 53.7319L50.1198 53.5057C50.306 53.5054 50.4849 53.5785 50.6175 53.7093C50.6848 53.7737 50.7385 53.8509 50.7754 53.9363C50.8123 54.0218 50.8317 54.1139 50.8324 54.207L50.9738 66.4453C50.9738 66.6323 50.9003 66.8119 50.7691 66.9452C50.6379 67.0785 50.4595 67.1549 50.2725 67.1579L25.4509 67.4406H25.4453ZM31.3608 55.1401L26.5368 66.0155L49.5373 65.744L49.4129 54.9196L31.3608 55.1401Z" fill="#575756"/>
<path fill-rule="evenodd" clip-rule="evenodd" d="M26.107 66.1343C25.9936 66.1322 25.8811 66.1132 25.7733 66.0777L22.8495 65.0484C22.7223 64.9966 22.6067 64.9199 22.5095 64.8228C22.4124 64.7257 22.3357 64.6101 22.284 64.4829C22.2295 64.356 22.2014 64.2194 22.2014 64.0813C22.2014 63.9433 22.2295 63.8067 22.284 63.6798L24.45 58.5334C24.5278 58.3503 24.6577 58.1942 24.8237 58.0846C24.9896 57.975 25.1842 57.9167 25.3831 57.9169C25.4867 57.9153 25.5899 57.9306 25.6885 57.9622L28.7707 58.9575C28.909 59.0014 29.0362 59.0746 29.1436 59.1723C29.251 59.2699 29.336 59.3895 29.3928 59.5231C29.4503 59.6541 29.4799 59.7957 29.4799 59.9388C29.4799 60.0818 29.4503 60.2234 29.3928 60.3544L27.0345 65.5461C26.9535 65.7234 26.8227 65.8734 26.658 65.9778C26.4934 66.0822 26.302 66.1366 26.107 66.1343Z" fill="#FFC244"/>
<path fill-rule="evenodd" clip-rule="evenodd" d="M25.3547 56.9161C24.9552 56.9176 24.5649 57.0363 24.2321 57.2574C23.8994 57.4786 23.6388 57.7925 23.4828 58.1603L21.3168 63.3011C21.21 63.5561 21.1564 63.8303 21.159 64.1068C21.1617 64.3832 21.2207 64.6563 21.3323 64.9092C21.444 65.1622 21.606 65.3897 21.8085 65.578C22.011 65.7663 22.2497 65.9114 22.5101 66.0044L25.4339 67.028C25.9123 67.2006 26.4383 67.1857 26.9062 66.9864C27.3741 66.7871 27.7492 66.418 27.9562 65.9535L30.3089 60.7618C30.4276 60.5007 30.4891 60.2173 30.4891 59.9305C30.4891 59.6437 30.4276 59.3602 30.3089 59.0991C30.1943 58.8326 30.024 58.5938 29.8094 58.3987C29.5947 58.2036 29.3408 58.0568 29.0647 57.968L25.9542 56.9896C25.759 56.936 25.5571 56.9113 25.3547 56.9161ZM25.2303 58.3074L28.8328 59.4667L26.1069 65.6368L22.7137 64.4152L25.2303 58.3074Z" fill="#575756"/>
<path fill-rule="evenodd" clip-rule="evenodd" d="M56.205 51.221C56.2117 51.7114 56.1216 52.1983 55.9398 52.6538C55.758 53.1092 55.4881 53.5243 55.1455 53.8753C54.803 54.2263 54.3945 54.5062 53.9436 54.699C53.4926 54.8918 53.0081 54.9937 52.5177 54.9988L31.7454 55.2363C30.7554 55.2483 29.8013 54.8666 29.0928 54.1751C28.3843 53.4836 27.9796 52.539 27.9676 51.549C27.9556 50.5591 28.3373 49.6049 29.0288 48.8964C29.7203 48.188 30.6649 47.7832 31.6549 47.7712L52.4272 47.528C52.9178 47.5221 53.4048 47.6129 53.8604 47.7953C54.3159 47.9777 54.7309 48.2482 55.0818 48.5912C55.4327 48.9342 55.7125 49.343 55.9052 49.7943C56.098 50.2455 56.1998 50.7304 56.205 51.221Z" fill="#B9BABC"/>
<path d="M31.7001 55.9432C30.5717 55.8801 29.5099 55.3891 28.731 54.5702C27.9521 53.7513 27.5149 52.6662 27.5084 51.5361C27.5019 50.406 27.9266 49.3159 28.6961 48.4881C29.4655 47.6603 30.5216 47.1572 31.6492 47.0811L52.4215 46.838H52.4724C53.6406 46.8394 54.7613 47.3006 55.5921 48.1218C56.4229 48.9431 56.8971 50.0584 56.9119 51.2266C56.9216 51.812 56.8158 52.3936 56.6003 52.9381C56.3849 53.4825 56.0642 53.9791 55.6565 54.3994C55.2488 54.8197 54.7622 55.1554 54.2246 55.3873C53.6869 55.6192 53.1088 55.7428 52.5233 55.7509L31.751 55.9884L31.7001 55.9432ZM52.4724 48.2122H52.4385L31.6662 48.4554C31.2688 48.4602 30.8764 48.5433 30.5111 48.6998C30.1459 48.8563 29.815 49.0832 29.5375 49.3676C29.26 49.652 29.0411 49.9882 28.8935 50.3572C28.746 50.7261 28.6725 51.1205 28.6773 51.5178C28.6821 51.9151 28.7652 52.3076 28.9217 52.6729C29.0782 53.0381 29.3051 53.369 29.5895 53.6465C29.8739 53.924 30.2101 54.1429 30.579 54.2904C30.948 54.438 31.3424 54.5115 31.7397 54.5067L52.5064 54.2692C53.3093 54.2587 54.0754 53.9301 54.6363 53.3554C55.1972 52.7807 55.5071 52.0069 55.4981 51.2039C55.4877 50.4078 55.1645 49.6478 54.5984 49.088C54.0322 48.5282 53.2686 48.2136 52.4724 48.2122Z" fill="#575756"/>
<path fill-rule="evenodd" clip-rule="evenodd" d="M37.8305 57.6511C34.3542 57.7396 31.0467 59.1685 28.5994 61.639C26.1521 64.1095 24.7545 67.4303 24.6987 70.9073C24.6987 71.0573 24.7583 71.2012 24.8643 71.3072C24.9704 71.4133 25.1142 71.4729 25.2642 71.4729L51.0868 70.8169C51.2368 70.8169 51.3806 70.7573 51.4867 70.6512C51.5927 70.5452 51.6523 70.4013 51.6523 70.2513C51.424 66.7717 49.857 63.5157 47.28 61.1665C44.703 58.8172 41.3164 57.5573 37.8305 57.6511Z" fill="#96D5E9"/>
<path d="M24.6987 72.1799C24.5146 72.1786 24.3381 72.106 24.2063 71.9773C24.0745 71.8487 23.9977 71.6741 23.9918 71.49C23.8976 67.7287 25.3005 64.0839 27.8922 61.3565C30.4839 58.629 34.0525 57.042 37.8136 56.9443C41.5741 56.8531 45.2172 58.257 47.9439 60.8481C50.6707 63.4392 52.2586 67.0059 52.3593 70.7661C52.3624 70.8586 52.3469 70.9507 52.3139 71.0371C52.2809 71.1236 52.231 71.2025 52.1671 71.2694C52.0369 71.4059 51.8579 71.4852 51.6694 71.49L24.7214 72.1799H24.6987ZM37.8532 58.3581C34.5881 58.4406 31.4788 59.771 29.1646 62.0758C26.8504 64.3805 25.5072 67.4844 25.4113 70.7491L50.9116 70.0931C50.644 66.8399 49.1425 63.8122 46.7146 61.6304C44.2868 59.4486 41.1164 58.2779 37.8532 58.3581Z" fill="#575756"/>
<path d="M26.7291 70.2176C26.5848 70.2179 26.4458 70.163 26.3407 70.0641C26.2356 69.9653 26.1722 69.83 26.1635 69.686C26.0448 67.2938 27.1419 64.6923 29.1722 62.5489C30.3052 61.3329 31.6722 60.3584 33.1912 59.6839C34.7102 59.0095 36.3498 58.649 38.0116 58.624C38.1616 58.624 38.3054 58.6836 38.4115 58.7897C38.5175 58.8957 38.5771 59.0396 38.5771 59.1896C38.5771 59.3396 38.5175 59.4834 38.4115 59.5895C38.3054 59.6955 38.1616 59.7551 38.0116 59.7551C36.5037 59.7787 35.0162 60.1076 33.6389 60.7219C32.2615 61.3362 31.023 62.2232 29.9979 63.3293C28.4476 64.866 27.4901 66.9011 27.2946 69.0752L49.2941 68.5945C49.4441 68.5945 49.588 68.6541 49.694 68.7601C49.8001 68.8662 49.8597 69.0101 49.8597 69.16C49.8597 69.31 49.8001 69.4539 49.694 69.5599C49.588 69.666 49.4441 69.7256 49.2941 69.7256L26.7291 70.2176Z" fill="white"/>
<path d="M63.0481 71.3203C62.962 71.3206 62.8768 71.3013 62.7993 71.2637C62.728 71.2284 62.6649 71.1784 62.6142 71.117C62.5635 71.0556 62.5264 70.9842 62.5052 70.9074C61.6003 67.7008 61.8888 60.7277 69.4274 57.2949C69.495 57.264 69.568 57.2468 69.6422 57.2442C69.7165 57.2416 69.7905 57.2536 69.8601 57.2796C69.9297 57.3056 69.9934 57.3451 70.0478 57.3957C70.1021 57.4464 70.1459 57.5072 70.1768 57.5748C70.2076 57.6424 70.2248 57.7154 70.2274 57.7896C70.23 57.8638 70.218 57.9379 70.192 58.0074C70.166 58.077 70.1265 58.1408 70.0759 58.1951C70.0253 58.2495 69.9644 58.2933 69.8968 58.3241C63.5006 61.231 62.8445 66.909 63.4497 69.9912L82.678 62.5148C82.8183 62.4608 82.9742 62.4647 83.1116 62.5257C83.2489 62.5867 83.3564 62.6997 83.4104 62.84C83.4644 62.9802 83.4605 63.1362 83.3995 63.2735C83.3385 63.4109 83.2255 63.5184 83.0852 63.5724L63.2517 71.2807C63.1875 71.3084 63.118 71.3219 63.0481 71.3203Z" fill="white"/>
<path d="M29.4493 52.0411C29.2993 52.0411 29.1555 51.9815 29.0494 51.8755C28.9434 51.7694 28.8838 51.6256 28.8838 51.4756C28.8924 50.7431 29.1848 50.0426 29.6996 49.5215C30.2144 49.0004 30.9113 48.6993 31.6436 48.6818L51.4771 48.433C51.6271 48.433 51.771 48.4926 51.877 48.5986C51.9831 48.7047 52.0427 48.8485 52.0427 48.9985C52.0427 49.1485 51.9831 49.2923 51.877 49.3984C51.771 49.5045 51.6271 49.564 51.4771 49.564L31.6436 49.8129C31.2093 49.8273 30.7971 50.0078 30.492 50.3171C30.1868 50.6265 30.012 51.0411 30.0036 51.4756C30.0036 51.6236 29.9456 51.7658 29.8419 51.8715C29.7383 51.9773 29.5974 52.0382 29.4493 52.0411Z" fill="white"/>
</g>
<defs>
<clipPath id="clip0_1152_8806">
<rect width="71.2468" height="54.4389" fill="white" transform="translate(18.2459 29.4081)"/>
</clipPath>
</defs>
</svg>
