<svg width="108" height="114" viewBox="0 0 108 114" fill="none" xmlns="http://www.w3.org/2000/svg">
<path opacity="0.1" fill-rule="evenodd" clip-rule="evenodd" d="M87.0451 76.676C87.0451 78.4178 72.341 79.826 54.1872 79.826C36.0333 79.826 21.3236 78.4178 21.3236 76.676C21.3236 74.9341 36.0277 73.5203 54.1872 73.5203C72.3467 73.5203 87.0451 74.9341 87.0451 76.676Z" fill="#171C20"/>
<path fill-rule="evenodd" clip-rule="evenodd" d="M72.1487 46.216C64.4461 48.6817 51.597 45.4186 44.3354 41.2279L41.864 33.5083C39.907 34.135 38.2686 35.495 37.2923 37.3031C36.316 39.1113 36.0776 41.2272 36.6271 43.2073L43.9396 45.198L36.4122 71.3995L70.2881 59.5684C71.3412 60.2685 72.5548 60.6901 73.8152 60.7937C75.0756 60.8973 76.3416 60.6794 77.4949 60.1605C78.6482 59.6417 79.651 58.8387 80.4096 57.8268C81.1682 56.8149 81.6576 55.6272 81.8322 54.3746C82.0069 53.1221 81.8609 51.8458 81.408 50.665C80.9551 49.4842 80.2101 48.4376 79.2427 47.6231C78.2753 46.8086 77.1171 46.2528 75.8764 46.0077C74.6358 45.7626 73.3532 45.8362 72.1487 46.2216V46.216Z" fill="#B9BABC"/>
<path d="M36.4123 72.1007C36.3025 72.1007 36.1943 72.0752 36.0961 72.0261C35.998 71.977 35.9126 71.9057 35.8468 71.8179C35.7809 71.7301 35.7364 71.6282 35.7168 71.5203C35.6971 71.4123 35.7029 71.3012 35.7336 71.1959L43.0517 45.7013L36.4349 43.8972C36.3157 43.8662 36.2071 43.8036 36.1205 43.716C36.0339 43.6284 35.9725 43.5191 35.9429 43.3995C35.9397 43.3695 35.9397 43.3391 35.9429 43.3091C35.3645 41.1644 35.6347 38.8793 36.6974 36.9288C37.7601 34.9782 39.5336 33.5121 41.6492 32.8352C41.7415 32.8033 41.8394 32.7909 41.9367 32.7986C42.034 32.8064 42.1287 32.8343 42.2147 32.8805C42.2982 32.9218 42.3724 32.9797 42.4326 33.0507C42.4929 33.1217 42.5381 33.2043 42.5654 33.2933L44.9463 40.7528C54.3117 46.0576 66.2219 47.3753 71.9622 45.5429C73.2662 45.1259 74.6539 45.0426 75.9984 45.3008C77.3429 45.559 78.6012 46.1503 79.6579 47.0208C80.7147 47.8912 81.5361 49.0128 82.0471 50.2829C82.5581 51.553 82.7423 52.931 82.5828 54.2908C82.4233 55.6505 81.9252 56.9485 81.1341 58.0659C80.343 59.1832 79.2843 60.0843 78.0548 60.6865C76.8253 61.2887 75.4643 61.5728 74.0966 61.5128C72.7289 61.4528 71.398 61.0507 70.226 60.3431L36.6442 72.0611C36.57 72.0884 36.4914 72.1019 36.4123 72.1007ZM37.2154 42.6474L44.115 44.525C44.2927 44.5765 44.4436 44.6947 44.5363 44.8549C44.6291 45.015 44.6564 45.2048 44.6126 45.3846L37.4699 70.2684L70.0563 58.8897C70.159 58.8533 70.2687 58.8414 70.3768 58.8552C70.4848 58.869 70.5881 58.9079 70.6784 58.9689C71.633 59.6114 72.7352 60.0007 73.8816 60.1001C75.028 60.1995 76.1808 60.0058 77.2317 59.5372C78.2826 59.0686 79.1972 58.3405 79.8893 57.4213C80.5815 56.502 81.0286 55.4219 81.1885 54.2824C81.3485 53.1429 81.2161 51.9815 80.8038 50.9072C80.3915 49.833 79.7128 48.8812 78.8315 48.1413C77.9502 47.4015 76.8953 46.8978 75.7659 46.6778C74.6364 46.4577 73.4696 46.5284 72.375 46.8833C64.5932 49.3716 51.631 46.2216 44.0471 41.8669C43.958 41.8263 43.8783 41.7676 43.8131 41.6946C43.7479 41.6216 43.6985 41.5358 43.6682 41.4428L41.406 34.4244C39.8577 35.0906 38.5912 36.2774 37.8258 37.7791C37.0604 39.2809 36.8445 41.0031 37.2154 42.6474Z" fill="#575756"/>
<path fill-rule="evenodd" clip-rule="evenodd" d="M36.6215 43.2186C35.9881 45.3676 34.2858 48.7382 31.328 49.6827C27.1883 51.0061 25.848 49.6205 25.7122 49.5357C25.7102 49.5244 25.7102 49.5129 25.7122 49.5017C25.2341 49.2047 24.6762 49.0616 24.1141 49.0919C23.552 49.1221 23.0127 49.3242 22.5692 49.6709C22.1257 50.0176 21.7993 50.4921 21.6342 51.0303C21.4691 51.5684 21.4732 52.1443 21.646 52.6801L27.7821 71.8745C27.9342 72.35 28.2125 72.7754 28.5873 73.1053C28.962 73.4352 29.4193 73.6572 29.9103 73.7477C30.4013 73.8383 30.9076 73.7939 31.3754 73.6194C31.8432 73.4449 32.2549 73.1468 32.5666 72.7567L36.4122 71.3995L43.9339 45.2149L36.6215 43.2186Z" fill="#747779"/>
<path d="M30.361 74.5042C29.6257 74.5032 28.9098 74.2688 28.3162 73.8349C27.7227 73.4009 27.2822 72.7897 27.0583 72.0893L20.8995 52.8949C20.6852 52.2299 20.6775 51.5156 20.8775 50.8461C21.0774 50.1767 21.4756 49.5836 22.0195 49.1451C22.5634 48.7065 23.2274 48.4431 23.924 48.3897C24.6206 48.3362 25.3171 48.4952 25.9215 48.8456C26.0326 48.8775 26.1313 48.9426 26.2043 49.0322C26.6511 49.3772 27.9801 49.9993 31.0906 49.0322C33.5846 48.2405 35.2529 45.311 35.9259 43.0432C35.9506 42.9525 35.9933 42.8677 36.0513 42.7938C36.1094 42.72 36.1818 42.6585 36.2641 42.6131C36.3464 42.5678 36.4369 42.5394 36.5304 42.5297C36.6239 42.5201 36.7183 42.5293 36.8082 42.5568L44.1206 44.5475C44.3022 44.601 44.4562 44.7226 44.5504 44.8868C44.5985 44.972 44.6287 45.066 44.6394 45.1632C44.6501 45.2604 44.641 45.3588 44.6126 45.4524L37.091 71.6369C37.0589 71.7449 37.0017 71.8437 36.924 71.9253C36.8464 72.0069 36.7504 72.0689 36.6442 72.1063L32.9286 73.407C32.5175 73.86 31.9949 74.1973 31.4129 74.3854C31.07 74.4765 30.7156 74.5165 30.361 74.5042ZM24.2079 49.7901C24.0005 49.7888 23.7942 49.8212 23.5972 49.8862C23.0801 50.0536 22.6501 50.4186 22.4012 50.9017C22.1522 51.3849 22.1044 51.9468 22.2681 52.4651L28.4043 71.6595C28.5703 72.1775 28.9352 72.6084 29.4187 72.8576C29.9022 73.1068 30.4649 73.1539 30.9831 72.9885C31.369 72.8667 31.7097 72.6324 31.9615 72.3156C32.0436 72.2118 32.1534 72.1334 32.2782 72.0893L35.8298 70.8338L43.0574 45.7012L37.0853 44.0781C36.1804 46.64 34.3198 49.4677 31.543 50.3556C28.7662 51.2435 26.5945 51.1417 25.3221 50.1124C24.9894 49.9001 24.6026 49.7882 24.2079 49.7901Z" fill="#575756"/>
<path fill-rule="evenodd" clip-rule="evenodd" d="M47.6271 63.7365C45.1218 65.9591 42.8879 66.4963 41.2987 67.0449C38.5332 68.012 37.1476 67.1976 37.1476 67.1976L33.5338 66.2249C32.9099 65.8965 32.1879 65.8061 31.5023 65.9705C30.8166 66.1349 30.2141 66.5429 29.8069 67.1184C28.8177 68.1338 28.1235 69.3992 27.7987 70.7791C27.4739 72.159 27.5308 73.6012 27.9633 74.9512C28.1141 75.4345 28.315 75.9008 28.5627 76.3424L28.7211 76.2915L43.182 71.671L60.0238 66.3097L59.6335 61.2538C57.5809 60.6631 55.4155 60.5805 53.3238 61.013C51.2322 61.4455 49.2771 62.3802 47.6271 63.7365Z" fill="#FFC244"/>
<path d="M28.5627 77.055C28.437 77.0549 28.3137 77.0213 28.2053 76.9577C28.097 76.8941 28.0075 76.8027 27.9462 76.6931C27.6776 76.209 27.4579 75.6994 27.2902 75.1718C26.8156 73.7 26.7523 72.1265 27.1071 70.6214C27.462 69.1163 28.2215 67.7368 29.3035 66.6321C29.8719 66.0601 30.5874 65.6565 31.3709 65.4659C32.1544 65.2752 32.9754 65.305 33.743 65.5519L37.3342 66.519C38.7576 66.7608 40.2184 66.656 41.5927 66.2136C41.8133 66.1344 42.0225 66.0779 42.2318 66.0157C43.1649 65.7442 44.132 65.4501 47.1972 63.1879C53.4182 58.3186 59.6391 60.4903 59.8766 60.5865C60.0045 60.6329 60.1163 60.7152 60.1985 60.8235C60.2808 60.9318 60.33 61.0616 60.3404 61.1972L60.725 66.2475C60.7378 66.4061 60.6968 66.5644 60.6085 66.6968C60.5203 66.8292 60.3899 66.9279 60.2386 66.9771L28.7719 77.0154C28.7047 77.0396 28.6341 77.053 28.5627 77.055ZM32.3687 66.7565C31.9862 66.7535 31.607 66.8281 31.2542 66.9759C30.9013 67.1236 30.5821 67.3414 30.3158 67.6161C29.4119 68.5374 28.7762 69.6877 28.4772 70.9433C28.1783 72.1988 28.2274 73.5122 28.6192 74.7419C28.6995 74.9985 28.7959 75.2497 28.9076 75.4941L59.2545 65.7951L58.9492 61.7798C57.061 61.3253 55.093 61.3161 53.2007 61.7529C51.3084 62.1896 49.5435 63.0604 48.0455 64.2964C44.7767 66.7395 43.6343 67.0676 42.622 67.356C42.4354 67.4125 42.2544 67.4634 42.0565 67.5313C40.4161 68.0738 38.6652 68.1924 36.9666 67.8763L33.3415 66.9092H33.2849C32.9897 66.8089 32.6805 66.7555 32.3687 66.7509V66.7565Z" fill="#575756"/>
<path fill-rule="evenodd" clip-rule="evenodd" d="M56.3474 66.1286C56.3982 66.288 56.4799 66.4358 56.5878 66.5635C56.6957 66.6913 56.8278 66.7966 56.9765 66.8732C57.1251 66.9499 57.2874 66.9966 57.4541 67.0105C57.6208 67.0244 57.7886 67.0053 57.9479 66.9543L84.4717 58.4712C84.6313 58.4217 84.7795 58.3409 84.9076 58.2337C85.0358 58.1265 85.1413 57.9948 85.2181 57.8464C85.295 57.698 85.3415 57.5359 85.3551 57.3693C85.3688 57.2028 85.3491 57.0352 85.2974 56.8763L83.991 52.7818C83.9403 52.6224 83.8586 52.4746 83.7507 52.3469C83.6427 52.2191 83.5106 52.1138 83.362 52.0371C83.2133 51.9605 83.051 51.9138 82.8843 51.8999C82.7177 51.886 82.5499 51.9051 82.3906 51.9561L59.0903 59.4043C58.6673 59.5178 58.2875 59.754 57.9986 60.0831C57.7098 60.4122 57.5248 60.8195 57.4672 61.2536L56.3474 66.1286Z" fill="#FFC244"/>
<path d="M57.5635 67.7235C57.1433 67.7223 56.7343 67.5882 56.395 67.3403C56.0557 67.0924 55.8035 66.7435 55.6746 66.3436C55.6435 66.2211 55.6435 66.0928 55.6746 65.9703L56.8057 61.101C56.8894 60.5463 57.1322 60.0278 57.5046 59.6083C57.8769 59.1887 58.363 58.8861 58.9038 58.7371L82.2041 51.2889C82.4518 51.2098 82.7126 51.1802 82.9718 51.2018C83.2309 51.2235 83.4832 51.296 83.7143 51.4153C83.9453 51.5345 84.1507 51.6981 84.3185 51.8967C84.4864 52.0952 84.6134 52.325 84.6925 52.5727L85.9989 56.6672C86.1572 57.1674 86.111 57.71 85.8705 58.1763C85.6299 58.6426 85.2145 58.9947 84.7151 59.1556L58.1912 67.6387C57.9878 67.6999 57.7759 67.7285 57.5635 67.7235ZM57.0941 66.0269C57.1619 66.1286 57.2608 66.2056 57.376 66.2464C57.4912 66.2872 57.6165 66.2895 57.7332 66.2531L84.24 57.8266C84.3822 57.7811 84.5006 57.6813 84.5695 57.5488C84.6383 57.4164 84.6521 57.2621 84.6076 57.1196L83.3012 53.0251C83.2788 52.9541 83.2424 52.8882 83.1944 52.8312C83.1464 52.7743 83.0876 52.7274 83.0214 52.6932C82.9551 52.6591 82.8828 52.6383 82.8086 52.6322C82.7343 52.6261 82.6596 52.6347 82.5887 52.6575L59.3054 60.0887C59.0049 60.1667 58.7355 60.3348 58.5333 60.5703C58.3311 60.8059 58.2059 61.0976 58.1743 61.4064L57.0941 66.0269Z" fill="#575756"/>
<path d="M57.8802 52.9854C57.824 52.9939 57.7668 52.9939 57.7106 52.9854L43.0631 49.3433C42.8934 49.2877 42.7511 49.1701 42.6646 49.0139C42.5781 48.8577 42.5539 48.6746 42.5969 48.5013C42.6398 48.3281 42.7468 48.1775 42.8962 48.0798C43.0456 47.9821 43.2264 47.9445 43.4024 47.9747L57.5409 51.4641L60.493 46.9397C60.5982 46.7888 60.7582 46.6847 60.9388 46.6498C61.1195 46.6149 61.3067 46.6517 61.4606 46.7526C61.6145 46.8535 61.723 47.0104 61.763 47.1901C61.8031 47.3697 61.7715 47.5578 61.675 47.7145L58.4514 52.6291C58.393 52.7309 58.3102 52.8168 58.2106 52.8789C58.1109 52.9411 57.9974 52.9777 57.8802 52.9854Z" fill="#575756"/>
<path d="M47.4402 45.3846C47.3492 45.3841 47.2591 45.3668 47.1744 45.3337C47.0881 45.2989 47.0096 45.2474 46.9433 45.1822C46.877 45.117 46.8242 45.0394 46.788 44.9537C46.7517 44.8681 46.7327 44.7762 46.7321 44.6832C46.7314 44.5902 46.7491 44.498 46.7841 44.4119L47.9152 41.5842C47.9845 41.4104 48.1198 41.2711 48.2915 41.1969C48.4632 41.1227 48.6574 41.1196 48.8314 41.1883C49.0046 41.2599 49.143 41.3964 49.217 41.5686C49.2909 41.7408 49.2946 41.9352 49.2273 42.1101L48.0962 44.9378C48.0435 45.0689 47.953 45.1814 47.8361 45.261C47.7193 45.3405 47.5815 45.3836 47.4402 45.3846Z" fill="#575756"/>
<path d="M51.0427 46.7363C50.9517 46.7363 50.8615 46.7191 50.7769 46.6854C50.6907 46.6506 50.6122 46.5991 50.5459 46.5339C50.4796 46.4687 50.4268 46.3911 50.3905 46.3055C50.3543 46.2198 50.3353 46.1279 50.3346 46.0349C50.334 45.9419 50.3516 45.8497 50.3867 45.7636L51.5178 42.9359C51.587 42.7621 51.7223 42.6228 51.894 42.5486C52.0658 42.4744 52.2599 42.4713 52.4339 42.54C52.6072 42.6116 52.7455 42.7481 52.8195 42.9203C52.8935 43.0926 52.8972 43.2869 52.8298 43.4618L51.6987 46.2895C51.646 46.4207 51.5555 46.5331 51.4387 46.6127C51.3219 46.6923 51.184 46.7353 51.0427 46.7363Z" fill="#575756"/>
<path d="M54.6453 48.0765C54.5542 48.0766 54.464 48.0593 54.3795 48.0256C54.2905 47.991 54.2094 47.9387 54.1412 47.8718C54.073 47.805 54.019 47.725 53.9825 47.6368C53.9461 47.5485 53.9279 47.4538 53.929 47.3583C53.9302 47.2628 53.9507 47.1685 53.9892 47.0812L55.1203 44.2252C55.1896 44.0514 55.3249 43.9122 55.4966 43.838C55.6683 43.7638 55.8625 43.7606 56.0365 43.8293C56.2097 43.9009 56.3481 44.0374 56.4221 44.2097C56.496 44.3819 56.4997 44.5762 56.4324 44.7511L55.3013 47.5788C55.2569 47.7195 55.1699 47.8429 55.0524 47.932C54.9349 48.0212 54.7927 48.0717 54.6453 48.0765Z" fill="#575756"/>
<path fill-rule="evenodd" clip-rule="evenodd" d="M44.0244 40.2948L41.0949 41.2731L38.9968 35.154C39.8434 34.434 40.8153 33.8761 41.8641 33.5083L44.0244 40.2948Z" fill="#FFC244"/>
<path d="M41.0948 41.9574C40.9482 41.9564 40.8055 41.9103 40.6861 41.8253C40.5667 41.7403 40.4764 41.6205 40.4275 41.4823L38.318 35.3858C38.2772 35.2549 38.2746 35.115 38.3107 34.9828C38.3468 34.8505 38.42 34.7313 38.5216 34.6393C39.4453 33.8532 40.508 33.2471 41.6547 32.8522C41.8325 32.797 42.0248 32.8142 42.19 32.8999C42.3551 32.9857 42.4798 33.1331 42.537 33.3102L44.6973 40.0967C44.7547 40.2737 44.74 40.4662 44.6563 40.6325C44.5727 40.7987 44.4269 40.9252 44.2506 40.9846L41.3154 41.9234C41.244 41.9457 41.1696 41.9572 41.0948 41.9574ZM39.8167 35.3914L41.5133 40.3569L43.1138 39.8253L41.4172 34.4357C40.8525 34.6988 40.3162 35.0191 39.8167 35.3914Z" fill="#575756"/>
<path d="M59.3561 61.3893C59.2602 61.389 59.1668 61.3581 59.0896 61.3011C59.0123 61.2442 58.9551 61.1642 58.9263 61.0726C58.9072 61.0162 58.8996 60.9566 58.9041 60.8972C58.9086 60.8378 58.9251 60.7799 58.9526 60.7271C58.9801 60.6742 59.018 60.6275 59.064 60.5897C59.11 60.5519 59.1632 60.5238 59.2204 60.5071L82.1248 53.1551C82.2353 53.1305 82.351 53.1482 82.4491 53.2047C82.5472 53.2612 82.6205 53.3525 82.6546 53.4604C82.6887 53.5684 82.6811 53.6852 82.6333 53.7878C82.5854 53.8904 82.5009 53.9714 82.3963 54.0147L59.4919 61.3667C59.4484 61.3825 59.4024 61.3901 59.3561 61.3893Z" fill="white"/>
<path d="M23.1617 53.4717C23.0626 53.4715 22.9663 53.4387 22.8876 53.3784C22.8089 53.3182 22.7522 53.2337 22.7262 53.1381C22.4152 52.007 22.5 51.17 22.9694 50.661C23.1922 50.4509 23.4652 50.3015 23.7623 50.2272C24.0594 50.1529 24.3706 50.1563 24.666 50.2369C24.8957 50.2928 25.1165 50.3804 25.3221 50.497C30.3554 53.1041 34.6252 49.2472 36.3558 46.5382C36.3845 46.482 36.4247 46.4323 36.4737 46.3925C36.5228 46.3527 36.5796 46.3237 36.6406 46.3072C36.7016 46.2907 36.7653 46.2871 36.8278 46.2968C36.8902 46.3064 36.9499 46.329 37.0031 46.3632C37.0562 46.3973 37.1017 46.4422 37.1364 46.4949C37.1712 46.5476 37.1946 46.6071 37.205 46.6694C37.2154 46.7317 37.2126 46.7955 37.1969 46.8567C37.1811 46.9178 37.1528 46.975 37.1136 47.0246C33.0869 53.3021 27.5446 52.6687 24.9036 51.3001C24.7727 51.2228 24.6319 51.1638 24.4851 51.1248C24.3405 51.0837 24.1884 51.0761 24.0404 51.1025C23.8925 51.129 23.7525 51.1888 23.6311 51.2774C23.3936 51.5319 23.3823 52.1088 23.5972 52.9005C23.6151 52.9585 23.6211 53.0194 23.6148 53.0797C23.6085 53.1401 23.5899 53.1984 23.5603 53.2514C23.5307 53.3043 23.4906 53.3506 23.4425 53.3875C23.3944 53.4244 23.3392 53.4512 23.2805 53.4661C23.2413 53.4735 23.2013 53.4754 23.1617 53.4717Z" fill="white"/>
<path d="M29.0997 71.852H29.0488C28.9898 71.845 28.9327 71.8264 28.8808 71.7973C28.8289 71.7682 28.7833 71.7291 28.7465 71.6824C28.7098 71.6356 28.6826 71.5821 28.6665 71.5248C28.6505 71.4676 28.6459 71.4077 28.653 71.3486C28.7378 70.5625 29.3769 68.3004 31.2149 67.2711C31.7831 66.9843 32.4417 66.9335 33.0472 67.1297L37.2944 68.2608C38.861 68.7019 42.9498 68.6736 47.2027 65.3765C47.2495 65.3394 47.3031 65.3118 47.3606 65.2954C47.418 65.279 47.4781 65.2741 47.5374 65.2809C47.5968 65.2878 47.6542 65.3062 47.7064 65.3352C47.7586 65.3642 47.8046 65.4033 47.8418 65.4501C47.8789 65.4968 47.9064 65.5505 47.9228 65.6079C47.9392 65.6654 47.9442 65.7255 47.9373 65.7848C47.9305 65.8441 47.9121 65.9016 47.8831 65.9538C47.854 66.006 47.815 66.052 47.7682 66.0891C43.2439 69.6124 38.7761 69.6181 37.0682 69.1317L32.8266 68.0006C32.4547 67.8823 32.0523 67.9044 31.6956 68.0628C30.1969 68.8998 29.6596 70.8396 29.5861 71.4561C29.5733 71.5727 29.515 71.6796 29.424 71.7537C29.333 71.8278 29.2166 71.8631 29.0997 71.852Z" fill="white"/>
</svg>
